<?xml version="1.0" encoding="UTF-8" standalone="no"?><svg xmlns="http://www.w3.org/2000/svg" xmlns:xlink="http://www.w3.org/1999/xlink" contentScriptType="application/ecmascript" contentStyleType="text/css" height="463px" preserveAspectRatio="none" style="width:666px;height:463px;" version="1.1" viewBox="0 0 666 463" width="666px" zoomAndPan="magnify"><defs><filter height="300%" id="fciv8xwal5p19" width="300%" x="-1" y="-1"><feGaussianBlur result="blurOut" stdDeviation="2.0"/><feColorMatrix in="blurOut" result="blurOut2" type="matrix" values="0 0 0 0 0 0 0 0 0 0 0 0 0 0 0 0 0 0 .4 0"/><feOffset dx="4.0" dy="4.0" in="blurOut2" result="blurOut3"/><feBlend in="SourceGraphic" in2="blurOut3" mode="normal"/></filter></defs><g><text fill="#000000" font-family="sans-serif" font-size="18" lengthAdjust="spacingAndGlyphs" textLength="214" x="229.5" y="16.708">AbstractFactoryExample</text><!--MD5=[21683a8c8c6dd566d4d16562922eec1b]
class AbstractVehicleFactory--><rect fill="#FEFECE" filter="url(#fciv8xwal5p19)" height="73.6094" id="AbstractVehicleFactory" style="stroke: #A80036; stroke-width: 1.5;" width="176" x="215" y="136.9531"/><ellipse cx="230" cy="152.9531" fill="#A9DCDF" rx="11" ry="11" style="stroke: #A80036; stroke-width: 1.0;"/><path d="M231.5781,154.7656 L227.5313,154.7656 L227.1406,155.75 L227.5313,155.75 C227.9844,155.75 228.125,155.7813 228.2969,155.9063 C228.5156,156.0781 228.6406,156.3281 228.6406,156.6094 C228.6406,156.8906 228.5,157.1875 228.2344,157.3281 C228.1094,157.4219 227.8906,157.4531 227.5313,157.4531 L225.2656,157.4531 C224.5156,157.4531 224.1406,157.1719 224.1406,156.6094 C224.1406,156.3125 224.2969,156.0313 224.5469,155.875 C224.7031,155.7656 224.8594,155.75 225.2813,155.75 L227.9219,149.2344 L226.8438,149.2344 C226.4063,149.2344 226.2344,149.2031 226.0625,149.0938 C225.8438,148.9219 225.7031,148.6719 225.7031,148.3906 C225.7031,148.1094 225.8594,147.8281 226.1094,147.6563 C226.2656,147.5625 226.3906,147.5469 226.8438,147.5469 L230.5156,147.5469 L233.9063,155.75 C234.375,155.75 234.5313,155.7813 234.7031,155.9219 C234.9219,156.0781 235.0625,156.3281 235.0625,156.6094 C235.0625,156.8906 234.9063,157.1875 234.6563,157.3281 C234.5156,157.4219 234.2969,157.4531 233.9375,157.4531 L231.5781,157.4531 C231.1563,157.4531 230.9531,157.4063 230.8125,157.2813 C230.5938,157.125 230.4531,156.875 230.4531,156.6094 C230.4531,156.3125 230.6094,156.0313 230.8594,155.875 C231.0156,155.7656 231.125,155.75 231.5781,155.75 L231.9688,155.75 Z M230.875,153.0625 L229.5469,149.7969 L228.2031,153.0625 Z "/><text fill="#000000" font-family="sans-serif" font-size="12" font-style="italic" lengthAdjust="spacingAndGlyphs" textLength="144" x="244" y="157.1074">AbstractVehicleFactory</text><line style="stroke: #A80036; stroke-width: 1.5;" x1="216" x2="390" y1="168.9531" y2="168.9531"/><line style="stroke: #A80036; stroke-width: 1.5;" x1="216" x2="390" y1="176.9531" y2="176.9531"/><text fill="#000000" font-family="sans-serif" font-size="11" font-style="italic" lengthAdjust="spacingAndGlyphs" textLength="85" x="221" y="191.1636">createTractor()</text><text fill="#000000" font-family="sans-serif" font-size="11" font-style="italic" lengthAdjust="spacingAndGlyphs" textLength="64" x="221" y="203.9683">createCar()</text><!--MD5=[c2ae9e2db68d1ee50883b07cfb7222b5]
class VehicleFactory_1--><rect fill="#FEFECE" filter="url(#fciv8xwal5p19)" height="73.6094" id="VehicleFactory_1" style="stroke: #A80036; stroke-width: 1.5;" width="137" x="359.5" y="270.9531"/><ellipse cx="374.5" cy="286.9531" fill="#ADD1B2" rx="11" ry="11" style="stroke: #A80036; stroke-width: 1.0;"/><path d="M376.8438,282.625 L377.0156,282.7031 C377.2344,282.3906 377.4375,282.2969 377.7344,282.2969 C378.0313,282.2969 378.3125,282.4375 378.4688,282.7031 C378.5625,282.8594 378.5781,282.9844 378.5781,283.4219 L378.5781,284.8438 C378.5781,285.2656 378.5469,285.4531 378.4375,285.6094 C378.2656,285.8281 378,285.9688 377.7344,285.9688 C377.5156,285.9688 377.2813,285.8594 377.1406,285.7188 C377,285.5938 376.9688,285.4688 376.9063,285.0625 C376.8125,284.6563 376.6406,284.4375 376.1563,284.1563 C375.6875,283.9063 375.0781,283.75 374.5,283.75 C372.7656,283.75 371.5156,285.0625 371.5156,286.8438 L371.5156,287.9375 C371.5156,289.6406 372.8125,290.7344 374.8594,290.7344 C375.625,290.7344 376.3125,290.6094 376.7344,290.3438 C376.9219,290.25 376.9219,290.25 377.375,289.7656 C377.5625,289.5781 377.7656,289.5 377.9844,289.5 C378.4531,289.5 378.8438,289.8906 378.8438,290.3438 C378.8438,290.7344 378.5156,291.1875 377.9375,291.5938 C377.1875,292.1406 376.0313,292.4375 374.8125,292.4375 C371.9219,292.4375 369.8125,290.5469 369.8125,287.9688 L369.8125,286.8438 C369.8125,284.125 371.8125,282.0469 374.4375,282.0469 C375.3125,282.0469 375.9063,282.1875 376.8438,282.625 Z "/><text fill="#000000" font-family="sans-serif" font-size="12" lengthAdjust="spacingAndGlyphs" textLength="105" x="388.5" y="291.1074">VehicleFactory_1</text><line style="stroke: #A80036; stroke-width: 1.5;" x1="360.5" x2="495.5" y1="302.9531" y2="302.9531"/><line style="stroke: #A80036; stroke-width: 1.5;" x1="360.5" x2="495.5" y1="310.9531" y2="310.9531"/><text fill="#000000" font-family="sans-serif" font-size="11" lengthAdjust="spacingAndGlyphs" textLength="85" x="365.5" y="325.1636">createTractor()</text><text fill="#000000" font-family="sans-serif" font-size="11" lengthAdjust="spacingAndGlyphs" textLength="64" x="365.5" y="337.9683">createCar()</text><!--MD5=[02c4147a1ca97792469aac6620c31cc2]
class VehicleFactory_2--><rect fill="#FEFECE" filter="url(#fciv8xwal5p19)" height="73.6094" id="VehicleFactory_2" style="stroke: #A80036; stroke-width: 1.5;" width="137" x="187.5" y="270.9531"/><ellipse cx="202.5" cy="286.9531" fill="#ADD1B2" rx="11" ry="11" style="stroke: #A80036; stroke-width: 1.0;"/><path d="M204.8438,282.625 L205.0156,282.7031 C205.2344,282.3906 205.4375,282.2969 205.7344,282.2969 C206.0313,282.2969 206.3125,282.4375 206.4688,282.7031 C206.5625,282.8594 206.5781,282.9844 206.5781,283.4219 L206.5781,284.8438 C206.5781,285.2656 206.5469,285.4531 206.4375,285.6094 C206.2656,285.8281 206,285.9688 205.7344,285.9688 C205.5156,285.9688 205.2813,285.8594 205.1406,285.7188 C205,285.5938 204.9688,285.4688 204.9063,285.0625 C204.8125,284.6563 204.6406,284.4375 204.1563,284.1563 C203.6875,283.9063 203.0781,283.75 202.5,283.75 C200.7656,283.75 199.5156,285.0625 199.5156,286.8438 L199.5156,287.9375 C199.5156,289.6406 200.8125,290.7344 202.8594,290.7344 C203.625,290.7344 204.3125,290.6094 204.7344,290.3438 C204.9219,290.25 204.9219,290.25 205.375,289.7656 C205.5625,289.5781 205.7656,289.5 205.9844,289.5 C206.4531,289.5 206.8438,289.8906 206.8438,290.3438 C206.8438,290.7344 206.5156,291.1875 205.9375,291.5938 C205.1875,292.1406 204.0313,292.4375 202.8125,292.4375 C199.9219,292.4375 197.8125,290.5469 197.8125,287.9688 L197.8125,286.8438 C197.8125,284.125 199.8125,282.0469 202.4375,282.0469 C203.3125,282.0469 203.9063,282.1875 204.8438,282.625 Z "/><text fill="#000000" font-family="sans-serif" font-size="12" lengthAdjust="spacingAndGlyphs" textLength="105" x="216.5" y="291.1074">VehicleFactory_2</text><line style="stroke: #A80036; stroke-width: 1.5;" x1="188.5" x2="323.5" y1="302.9531" y2="302.9531"/><line style="stroke: #A80036; stroke-width: 1.5;" x1="188.5" x2="323.5" y1="310.9531" y2="310.9531"/><text fill="#000000" font-family="sans-serif" font-size="11" lengthAdjust="spacingAndGlyphs" textLength="85" x="193.5" y="325.1636">createTractor()</text><text fill="#000000" font-family="sans-serif" font-size="11" lengthAdjust="spacingAndGlyphs" textLength="64" x="193.5" y="337.9683">createCar()</text><!--MD5=[ed6624c6556d5e7b1bd23032162d20b7]
class Client--><rect fill="#FEFECE" filter="url(#fciv8xwal5p19)" height="48" id="Client" style="stroke: #A80036; stroke-width: 1.5;" width="67" x="269.5" y="28.9531"/><ellipse cx="284.5" cy="44.9531" fill="#ADD1B2" rx="11" ry="11" style="stroke: #A80036; stroke-width: 1.0;"/><path d="M286.8438,40.625 L287.0156,40.7031 C287.2344,40.3906 287.4375,40.2969 287.7344,40.2969 C288.0313,40.2969 288.3125,40.4375 288.4688,40.7031 C288.5625,40.8594 288.5781,40.9844 288.5781,41.4219 L288.5781,42.8438 C288.5781,43.2656 288.5469,43.4531 288.4375,43.6094 C288.2656,43.8281 288,43.9688 287.7344,43.9688 C287.5156,43.9688 287.2813,43.8594 287.1406,43.7188 C287,43.5938 286.9688,43.4688 286.9063,43.0625 C286.8125,42.6563 286.6406,42.4375 286.1563,42.1563 C285.6875,41.9063 285.0781,41.75 284.5,41.75 C282.7656,41.75 281.5156,43.0625 281.5156,44.8438 L281.5156,45.9375 C281.5156,47.6406 282.8125,48.7344 284.8594,48.7344 C285.625,48.7344 286.3125,48.6094 286.7344,48.3438 C286.9219,48.25 286.9219,48.25 287.375,47.7656 C287.5625,47.5781 287.7656,47.5 287.9844,47.5 C288.4531,47.5 288.8438,47.8906 288.8438,48.3438 C288.8438,48.7344 288.5156,49.1875 287.9375,49.5938 C287.1875,50.1406 286.0313,50.4375 284.8125,50.4375 C281.9219,50.4375 279.8125,48.5469 279.8125,45.9688 L279.8125,44.8438 C279.8125,42.125 281.8125,40.0469 284.4375,40.0469 C285.3125,40.0469 285.9063,40.1875 286.8438,40.625 Z "/><text fill="#000000" font-family="sans-serif" font-size="12" lengthAdjust="spacingAndGlyphs" textLength="35" x="298.5" y="49.1074">Client</text><line style="stroke: #A80036; stroke-width: 1.5;" x1="270.5" x2="335.5" y1="60.9531" y2="60.9531"/><line style="stroke: #A80036; stroke-width: 1.5;" x1="270.5" x2="335.5" y1="68.9531" y2="68.9531"/><!--MD5=[9dddaeac6fded8063c10423aa937a378]
class AbstractTractor--><rect fill="#FEFECE" filter="url(#fciv8xwal5p19)" height="48" id="AbstractTractor" style="stroke: #A80036; stroke-width: 1.5;" width="129" x="23.5" y="283.9531"/><ellipse cx="38.5" cy="299.9531" fill="#A9DCDF" rx="11" ry="11" style="stroke: #A80036; stroke-width: 1.0;"/><path d="M40.0781,301.7656 L36.0313,301.7656 L35.6406,302.75 L36.0313,302.75 C36.4844,302.75 36.625,302.7813 36.7969,302.9063 C37.0156,303.0781 37.1406,303.3281 37.1406,303.6094 C37.1406,303.8906 37,304.1875 36.7344,304.3281 C36.6094,304.4219 36.3906,304.4531 36.0313,304.4531 L33.7656,304.4531 C33.0156,304.4531 32.6406,304.1719 32.6406,303.6094 C32.6406,303.3125 32.7969,303.0313 33.0469,302.875 C33.2031,302.7656 33.3594,302.75 33.7813,302.75 L36.4219,296.2344 L35.3438,296.2344 C34.9063,296.2344 34.7344,296.2031 34.5625,296.0938 C34.3438,295.9219 34.2031,295.6719 34.2031,295.3906 C34.2031,295.1094 34.3594,294.8281 34.6094,294.6563 C34.7656,294.5625 34.8906,294.5469 35.3438,294.5469 L39.0156,294.5469 L42.4063,302.75 C42.875,302.75 43.0313,302.7813 43.2031,302.9219 C43.4219,303.0781 43.5625,303.3281 43.5625,303.6094 C43.5625,303.8906 43.4063,304.1875 43.1563,304.3281 C43.0156,304.4219 42.7969,304.4531 42.4375,304.4531 L40.0781,304.4531 C39.6563,304.4531 39.4531,304.4063 39.3125,304.2813 C39.0938,304.125 38.9531,303.875 38.9531,303.6094 C38.9531,303.3125 39.1094,303.0313 39.3594,302.875 C39.5156,302.7656 39.625,302.75 40.0781,302.75 L40.4688,302.75 Z M39.375,300.0625 L38.0469,296.7969 L36.7031,300.0625 Z "/><text fill="#000000" font-family="sans-serif" font-size="12" font-style="italic" lengthAdjust="spacingAndGlyphs" textLength="97" x="52.5" y="304.1074">AbstractTractor</text><line style="stroke: #A80036; stroke-width: 1.5;" x1="24.5" x2="151.5" y1="315.9531" y2="315.9531"/><line style="stroke: #A80036; stroke-width: 1.5;" x1="24.5" x2="151.5" y1="323.9531" y2="323.9531"/><!--MD5=[c11345dae701d32402780a3faaa04c25]
class AbstractCar--><rect fill="#FEFECE" filter="url(#fciv8xwal5p19)" height="48" id="AbstractCar" style="stroke: #A80036; stroke-width: 1.5;" width="105" x="531.5" y="283.9531"/><ellipse cx="546.5" cy="299.9531" fill="#A9DCDF" rx="11" ry="11" style="stroke: #A80036; stroke-width: 1.0;"/><path d="M548.0781,301.7656 L544.0313,301.7656 L543.6406,302.75 L544.0313,302.75 C544.4844,302.75 544.625,302.7813 544.7969,302.9063 C545.0156,303.0781 545.1406,303.3281 545.1406,303.6094 C545.1406,303.8906 545,304.1875 544.7344,304.3281 C544.6094,304.4219 544.3906,304.4531 544.0313,304.4531 L541.7656,304.4531 C541.0156,304.4531 540.6406,304.1719 540.6406,303.6094 C540.6406,303.3125 540.7969,303.0313 541.0469,302.875 C541.2031,302.7656 541.3594,302.75 541.7813,302.75 L544.4219,296.2344 L543.3438,296.2344 C542.9063,296.2344 542.7344,296.2031 542.5625,296.0938 C542.3438,295.9219 542.2031,295.6719 542.2031,295.3906 C542.2031,295.1094 542.3594,294.8281 542.6094,294.6563 C542.7656,294.5625 542.8906,294.5469 543.3438,294.5469 L547.0156,294.5469 L550.4063,302.75 C550.875,302.75 551.0313,302.7813 551.2031,302.9219 C551.4219,303.0781 551.5625,303.3281 551.5625,303.6094 C551.5625,303.8906 551.4063,304.1875 551.1563,304.3281 C551.0156,304.4219 550.7969,304.4531 550.4375,304.4531 L548.0781,304.4531 C547.6563,304.4531 547.4531,304.4063 547.3125,304.2813 C547.0938,304.125 546.9531,303.875 546.9531,303.6094 C546.9531,303.3125 547.1094,303.0313 547.3594,302.875 C547.5156,302.7656 547.625,302.75 548.0781,302.75 L548.4688,302.75 Z M547.375,300.0625 L546.0469,296.7969 L544.7031,300.0625 Z "/><text fill="#000000" font-family="sans-serif" font-size="12" font-style="italic" lengthAdjust="spacingAndGlyphs" textLength="73" x="560.5" y="304.1074">AbstractCar</text><line style="stroke: #A80036; stroke-width: 1.5;" x1="532.5" x2="635.5" y1="315.9531" y2="315.9531"/><line style="stroke: #A80036; stroke-width: 1.5;" x1="532.5" x2="635.5" y1="323.9531" y2="323.9531"/><!--MD5=[5dfd53fdc921345fead967182dfc098d]
class ConcreteTractor_1--><rect fill="#FEFECE" filter="url(#fciv8xwal5p19)" height="48" id="ConcreteTractor_1" style="stroke: #A80036; stroke-width: 1.5;" width="148" x="189" y="404.9531"/><ellipse cx="204" cy="420.9531" fill="#ADD1B2" rx="11" ry="11" style="stroke: #A80036; stroke-width: 1.0;"/><path d="M206.3438,416.625 L206.5156,416.7031 C206.7344,416.3906 206.9375,416.2969 207.2344,416.2969 C207.5313,416.2969 207.8125,416.4375 207.9688,416.7031 C208.0625,416.8594 208.0781,416.9844 208.0781,417.4219 L208.0781,418.8438 C208.0781,419.2656 208.0469,419.4531 207.9375,419.6094 C207.7656,419.8281 207.5,419.9688 207.2344,419.9688 C207.0156,419.9688 206.7813,419.8594 206.6406,419.7188 C206.5,419.5938 206.4688,419.4688 206.4063,419.0625 C206.3125,418.6563 206.1406,418.4375 205.6563,418.1563 C205.1875,417.9063 204.5781,417.75 204,417.75 C202.2656,417.75 201.0156,419.0625 201.0156,420.8438 L201.0156,421.9375 C201.0156,423.6406 202.3125,424.7344 204.3594,424.7344 C205.125,424.7344 205.8125,424.6094 206.2344,424.3438 C206.4219,424.25 206.4219,424.25 206.875,423.7656 C207.0625,423.5781 207.2656,423.5 207.4844,423.5 C207.9531,423.5 208.3438,423.8906 208.3438,424.3438 C208.3438,424.7344 208.0156,425.1875 207.4375,425.5938 C206.6875,426.1406 205.5313,426.4375 204.3125,426.4375 C201.4219,426.4375 199.3125,424.5469 199.3125,421.9688 L199.3125,420.8438 C199.3125,418.125 201.3125,416.0469 203.9375,416.0469 C204.8125,416.0469 205.4063,416.1875 206.3438,416.625 Z "/><text fill="#000000" font-family="sans-serif" font-size="12" lengthAdjust="spacingAndGlyphs" textLength="116" x="218" y="425.1074">ConcreteTractor_1</text><line style="stroke: #A80036; stroke-width: 1.5;" x1="190" x2="336" y1="436.9531" y2="436.9531"/><line style="stroke: #A80036; stroke-width: 1.5;" x1="190" x2="336" y1="444.9531" y2="444.9531"/><!--MD5=[c49b89269d7b751adf7e373897d00308]
class ConcreteTractor_2--><rect fill="#FEFECE" filter="url(#fciv8xwal5p19)" height="48" id="ConcreteTractor_2" style="stroke: #A80036; stroke-width: 1.5;" width="148" x="6" y="404.9531"/><ellipse cx="21" cy="420.9531" fill="#ADD1B2" rx="11" ry="11" style="stroke: #A80036; stroke-width: 1.0;"/><path d="M23.3438,416.625 L23.5156,416.7031 C23.7344,416.3906 23.9375,416.2969 24.2344,416.2969 C24.5313,416.2969 24.8125,416.4375 24.9688,416.7031 C25.0625,416.8594 25.0781,416.9844 25.0781,417.4219 L25.0781,418.8438 C25.0781,419.2656 25.0469,419.4531 24.9375,419.6094 C24.7656,419.8281 24.5,419.9688 24.2344,419.9688 C24.0156,419.9688 23.7813,419.8594 23.6406,419.7188 C23.5,419.5938 23.4688,419.4688 23.4063,419.0625 C23.3125,418.6563 23.1406,418.4375 22.6563,418.1563 C22.1875,417.9063 21.5781,417.75 21,417.75 C19.2656,417.75 18.0156,419.0625 18.0156,420.8438 L18.0156,421.9375 C18.0156,423.6406 19.3125,424.7344 21.3594,424.7344 C22.125,424.7344 22.8125,424.6094 23.2344,424.3438 C23.4219,424.25 23.4219,424.25 23.875,423.7656 C24.0625,423.5781 24.2656,423.5 24.4844,423.5 C24.9531,423.5 25.3438,423.8906 25.3438,424.3438 C25.3438,424.7344 25.0156,425.1875 24.4375,425.5938 C23.6875,426.1406 22.5313,426.4375 21.3125,426.4375 C18.4219,426.4375 16.3125,424.5469 16.3125,421.9688 L16.3125,420.8438 C16.3125,418.125 18.3125,416.0469 20.9375,416.0469 C21.8125,416.0469 22.4063,416.1875 23.3438,416.625 Z "/><text fill="#000000" font-family="sans-serif" font-size="12" lengthAdjust="spacingAndGlyphs" textLength="116" x="35" y="425.1074">ConcreteTractor_2</text><line style="stroke: #A80036; stroke-width: 1.5;" x1="7" x2="153" y1="436.9531" y2="436.9531"/><line style="stroke: #A80036; stroke-width: 1.5;" x1="7" x2="153" y1="444.9531" y2="444.9531"/><!--MD5=[94b3351c1ee7ed02ee181e99aaeb477f]
class ConcreteCar_1--><rect fill="#FEFECE" filter="url(#fciv8xwal5p19)" height="48" id="ConcreteCar_1" style="stroke: #A80036; stroke-width: 1.5;" width="124" x="531" y="404.9531"/><ellipse cx="546" cy="420.9531" fill="#ADD1B2" rx="11" ry="11" style="stroke: #A80036; stroke-width: 1.0;"/><path d="M548.3438,416.625 L548.5156,416.7031 C548.7344,416.3906 548.9375,416.2969 549.2344,416.2969 C549.5313,416.2969 549.8125,416.4375 549.9688,416.7031 C550.0625,416.8594 550.0781,416.9844 550.0781,417.4219 L550.0781,418.8438 C550.0781,419.2656 550.0469,419.4531 549.9375,419.6094 C549.7656,419.8281 549.5,419.9688 549.2344,419.9688 C549.0156,419.9688 548.7813,419.8594 548.6406,419.7188 C548.5,419.5938 548.4688,419.4688 548.4063,419.0625 C548.3125,418.6563 548.1406,418.4375 547.6563,418.1563 C547.1875,417.9063 546.5781,417.75 546,417.75 C544.2656,417.75 543.0156,419.0625 543.0156,420.8438 L543.0156,421.9375 C543.0156,423.6406 544.3125,424.7344 546.3594,424.7344 C547.125,424.7344 547.8125,424.6094 548.2344,424.3438 C548.4219,424.25 548.4219,424.25 548.875,423.7656 C549.0625,423.5781 549.2656,423.5 549.4844,423.5 C549.9531,423.5 550.3438,423.8906 550.3438,424.3438 C550.3438,424.7344 550.0156,425.1875 549.4375,425.5938 C548.6875,426.1406 547.5313,426.4375 546.3125,426.4375 C543.4219,426.4375 541.3125,424.5469 541.3125,421.9688 L541.3125,420.8438 C541.3125,418.125 543.3125,416.0469 545.9375,416.0469 C546.8125,416.0469 547.4063,416.1875 548.3438,416.625 Z "/><text fill="#000000" font-family="sans-serif" font-size="12" lengthAdjust="spacingAndGlyphs" textLength="92" x="560" y="425.1074">ConcreteCar_1</text><line style="stroke: #A80036; stroke-width: 1.5;" x1="532" x2="654" y1="436.9531" y2="436.9531"/><line style="stroke: #A80036; stroke-width: 1.5;" x1="532" x2="654" y1="444.9531" y2="444.9531"/><!--MD5=[354f1d6c584353182746711a4e28e2ae]
class ConcreteCar_2--><rect fill="#FEFECE" filter="url(#fciv8xwal5p19)" height="48" id="ConcreteCar_2" style="stroke: #A80036; stroke-width: 1.5;" width="124" x="372" y="404.9531"/><ellipse cx="387" cy="420.9531" fill="#ADD1B2" rx="11" ry="11" style="stroke: #A80036; stroke-width: 1.0;"/><path d="M389.3438,416.625 L389.5156,416.7031 C389.7344,416.3906 389.9375,416.2969 390.2344,416.2969 C390.5313,416.2969 390.8125,416.4375 390.9688,416.7031 C391.0625,416.8594 391.0781,416.9844 391.0781,417.4219 L391.0781,418.8438 C391.0781,419.2656 391.0469,419.4531 390.9375,419.6094 C390.7656,419.8281 390.5,419.9688 390.2344,419.9688 C390.0156,419.9688 389.7813,419.8594 389.6406,419.7188 C389.5,419.5938 389.4688,419.4688 389.4063,419.0625 C389.3125,418.6563 389.1406,418.4375 388.6563,418.1563 C388.1875,417.9063 387.5781,417.75 387,417.75 C385.2656,417.75 384.0156,419.0625 384.0156,420.8438 L384.0156,421.9375 C384.0156,423.6406 385.3125,424.7344 387.3594,424.7344 C388.125,424.7344 388.8125,424.6094 389.2344,424.3438 C389.4219,424.25 389.4219,424.25 389.875,423.7656 C390.0625,423.5781 390.2656,423.5 390.4844,423.5 C390.9531,423.5 391.3438,423.8906 391.3438,424.3438 C391.3438,424.7344 391.0156,425.1875 390.4375,425.5938 C389.6875,426.1406 388.5313,426.4375 387.3125,426.4375 C384.4219,426.4375 382.3125,424.5469 382.3125,421.9688 L382.3125,420.8438 C382.3125,418.125 384.3125,416.0469 386.9375,416.0469 C387.8125,416.0469 388.4063,416.1875 389.3438,416.625 Z "/><text fill="#000000" font-family="sans-serif" font-size="12" lengthAdjust="spacingAndGlyphs" textLength="92" x="401" y="425.1074">ConcreteCar_2</text><line style="stroke: #A80036; stroke-width: 1.5;" x1="373" x2="495" y1="436.9531" y2="436.9531"/><line style="stroke: #A80036; stroke-width: 1.5;" x1="373" x2="495" y1="444.9531" y2="444.9531"/><!--MD5=[4d5e89cb7a2f1cd304ba0bc1a02360bc]
reverse link AbstractVehicleFactory to VehicleFactory_1--><path d="M350.982,225.6221 C365.284,240.7251 380.661,256.9631 393.884,270.9271 " fill="none" id="AbstractVehicleFactory&lt;-VehicleFactory_1" style="stroke: #A80036; stroke-width: 1.0;"/><polygon fill="none" points="345.826,230.3581,337.157,211.0231,355.991,220.7311,345.826,230.3581" style="stroke: #A80036; stroke-width: 1.0;"/><!--MD5=[b9920bc6e6ef4508eb888a275f48a837]
reverse link AbstractVehicleFactory to VehicleFactory_2--><path d="M283.437,229.8971 C278.504,243.7501 273.333,258.2721 268.827,270.9271 " fill="none" id="AbstractVehicleFactory&lt;-VehicleFactory_2" style="stroke: #A80036; stroke-width: 1.0;"/><polygon fill="none" points="276.854,227.5161,290.157,211.0231,290.043,232.2121,276.854,227.5161" style="stroke: #A80036; stroke-width: 1.0;"/><!--MD5=[d3defefc54e3a883e6171aeccc3bc09a]
reverse link AbstractTractor to ConcreteTractor_1--><path d="M138.769,343.4761 C167.749,363.1822 203.295,387.3538 228.929,404.7848 " fill="none" id="AbstractTractor&lt;-ConcreteTractor_1" style="stroke: #A80036; stroke-width: 1.0;"/><polygon fill="none" points="134.76,349.2151,122.157,332.1801,142.632,337.6381,134.76,349.2151" style="stroke: #A80036; stroke-width: 1.0;"/><!--MD5=[ef24758552ec89763ecf157b5ce84aee]
reverse link AbstractTractor to ConcreteTractor_2--><path d="M85.0839,352.3291 C83.8909,370.0753 82.5588,389.8907 81.5575,404.7848 " fill="none" id="AbstractTractor&lt;-ConcreteTractor_2" style="stroke: #A80036; stroke-width: 1.0;"/><polygon fill="none" points="78.1127,351.6651,86.4385,332.1801,92.0812,352.6041,78.1127,351.6651" style="stroke: #A80036; stroke-width: 1.0;"/><!--MD5=[d2ae3e77d2f5a2662871afc77a56b402]
reverse link AbstractCar to ConcreteCar_1--><path d="M587.281,352.3291 C588.623,370.0753 590.121,389.8907 591.248,404.7848 " fill="none" id="AbstractCar&lt;-ConcreteCar_1" style="stroke: #A80036; stroke-width: 1.0;"/><polygon fill="none" points="580.285,352.6511,585.757,332.1801,594.245,351.5951,580.285,352.6511" style="stroke: #A80036; stroke-width: 1.0;"/><!--MD5=[dffffaf96d51a1d5466e368998b973be]
reverse link AbstractCar to ConcreteCar_2--><path d="M538.725,344.8711 C514.218,364.3133 484.66,387.7629 463.204,404.7848 " fill="none" id="AbstractCar&lt;-ConcreteCar_2" style="stroke: #A80036; stroke-width: 1.0;"/><polygon fill="none" points="534.704,339.1261,554.722,332.1801,543.405,350.0941,534.704,339.1261" style="stroke: #A80036; stroke-width: 1.0;"/><!--MD5=[4802935dec0bf9718fdc924271996f15]
link VehicleFactory_1 to ConcreteTractor_1--><path d="M378.047,344.9801 C352.687,363.2694 322.442,385.0829 299.328,401.7528 " fill="none" id="VehicleFactory_1-&gt;ConcreteTractor_1" style="stroke: #A80036; stroke-width: 1.0; stroke-dasharray: 7.0,7.0;"/><polygon fill="#A80036" points="295.098,404.8036,304.7376,402.784,299.1535,401.8792,300.0584,396.2951,295.098,404.8036" style="stroke: #A80036; stroke-width: 1.0;"/><!--MD5=[e7f2cad9ccb7eb4ac39dbbb37f4d87e5]
link VehicleFactory_2 to ConcreteTractor_2--><path d="M202.717,344.9801 C175.554,363.3453 143.137,385.2639 118.444,401.96 " fill="none" id="VehicleFactory_2-&gt;ConcreteTractor_2" style="stroke: #A80036; stroke-width: 1.0; stroke-dasharray: 7.0,7.0;"/><polygon fill="#A80036" points="114.238,404.8036,123.9344,403.0772,118.3804,402.0035,119.4541,396.4495,114.238,404.8036" style="stroke: #A80036; stroke-width: 1.0;"/><!--MD5=[f8ac4ee5787aff632cf142aa862ad8f5]
link VehicleFactory_1 to ConcreteCar_1--><path d="M477.953,344.9801 C503.313,363.2694 533.558,385.0829 556.672,401.7528 " fill="none" id="VehicleFactory_1-&gt;ConcreteCar_1" style="stroke: #A80036; stroke-width: 1.0; stroke-dasharray: 7.0,7.0;"/><polygon fill="#A80036" points="560.902,404.8036,555.9416,396.2951,556.8465,401.8792,551.2624,402.784,560.902,404.8036" style="stroke: #A80036; stroke-width: 1.0;"/><!--MD5=[5f9e3d971df73f411b099bf54ceae0a1]
link VehicleFactory_2 to ConcreteCar_2--><path d="M309.889,344.9801 C337.36,363.3453 370.146,385.2639 395.12,401.96 " fill="none" id="VehicleFactory_2-&gt;ConcreteCar_2" style="stroke: #A80036; stroke-width: 1.0; stroke-dasharray: 7.0,7.0;"/><polygon fill="#A80036" points="399.373,404.8036,394.1136,396.4766,395.2162,402.025,389.6678,403.1275,399.373,404.8036" style="stroke: #A80036; stroke-width: 1.0;"/><!--MD5=[1c516a49e1bc0c0dc99386f114681380]
link Client to AbstractTractor--><path d="M269.432,76.1571 C247.569,91.6121 219.264,113.5761 198,136.9531 C157.026,181.9991 121.138,243.9201 102.2131,279.2541 " fill="none" id="Client-&gt;AbstractTractor" style="stroke: #A80036; stroke-width: 1.0;"/><polygon fill="#A80036" points="99.7678,283.8491,107.5266,277.7828,102.1165,279.4351,100.4642,274.0249,99.7678,283.8491" style="stroke: #A80036; stroke-width: 1.0;"/><!--MD5=[8e06c8e014ce1a5210029d9d058d8621]
link Client to AbstractCar--><path d="M334.313,77.0801 C355.796,93.2811 384.7,115.7431 409,136.9531 C464.267,185.1921 524.85,245.9671 558.261,280.2391 " fill="none" id="Client-&gt;AbstractCar" style="stroke: #A80036; stroke-width: 1.0;"/><polygon fill="#A80036" points="561.803,283.8781,558.3885,274.6401,558.3142,280.2965,552.6578,280.2222,561.803,283.8781" style="stroke: #A80036; stroke-width: 1.0;"/><!--MD5=[5a7bab7ad3536f5a83abe25c69d84896]
link Client to AbstractVehicleFactory--><path d="M303,77.1801 C303,92.6361 303,113.3741 303,131.6001 " fill="none" id="Client-&gt;AbstractVehicleFactory" style="stroke: #A80036; stroke-width: 1.0;"/><polygon fill="#A80036" points="303,136.6671,307,127.6671,303,131.6671,299,127.6671,303,136.6671" style="stroke: #A80036; stroke-width: 1.0;"/><!--MD5=[21ebb8ce7280f7bddb2b76543e874ed4]
@startuml
title AbstractFactoryExample


abstract class AbstractVehicleFactory{
    {abstract} createTractor()
    {abstract} createCar()
}
class VehicleFactory_1{
    createTractor()
    createCar()
}
class VehicleFactory_2{
    createTractor()
    createCar()
}

class Client
abstract class AbstractTractor
abstract class AbstractCar
class ConcreteTractor_1
class ConcreteTractor_2
class ConcreteCar_1
class ConcreteCar_2

AbstractVehicleFactory <|- - VehicleFactory_1
AbstractVehicleFactory <|- - VehicleFactory_2

AbstractTractor <|- - ConcreteTractor_1
AbstractTractor <|- - ConcreteTractor_2
AbstractCar <|- - ConcreteCar_1
AbstractCar <|- - ConcreteCar_2

VehicleFactory_1 ..> ConcreteTractor_1
VehicleFactory_2 ..> ConcreteTractor_2
VehicleFactory_1 ..> ConcreteCar_1
VehicleFactory_2 ..> ConcreteCar_2

Client - -> AbstractTractor
Client - -> AbstractCar
Client - -> AbstractVehicleFactory
@enduml

PlantUML version 1.2019.11(Sun Sep 22 10:02:15 UTC 2019)
(GPL source distribution)
Java Runtime: Java(TM) SE Runtime Environment
JVM: Java HotSpot(TM) 64-Bit Server VM
Java Version: 1.7.0_25-b15
Operating System: Linux
Default Encoding: UTF-8
Language: en
Country: US
--></g></svg>