<?xml version="1.0" encoding="UTF-8" standalone="no"?><svg xmlns="http://www.w3.org/2000/svg" xmlns:xlink="http://www.w3.org/1999/xlink" contentScriptType="application/ecmascript" contentStyleType="text/css" height="234px" preserveAspectRatio="none" style="width:354px;height:234px;" version="1.1" viewBox="0 0 354 234" width="354px" zoomAndPan="magnify"><defs><filter height="300%" id="fkioxxqjd23j7" width="300%" x="-1" y="-1"><feGaussianBlur result="blurOut" stdDeviation="2.0"/><feColorMatrix in="blurOut" result="blurOut2" type="matrix" values="0 0 0 0 0 0 0 0 0 0 0 0 0 0 0 0 0 0 .4 0"/><feOffset dx="4.0" dy="4.0" in="blurOut2" result="blurOut3"/><feBlend in="SourceGraphic" in2="blurOut3" mode="normal"/></filter></defs><g><text fill="#000000" font-family="sans-serif" font-size="18" lengthAdjust="spacingAndGlyphs" textLength="139" x="111.5" y="16.708">BuilderExample</text><!--class Director--><rect fill="#FEFECE" filter="url(#fkioxxqjd23j7)" height="60.8047" id="Director" style="stroke: #A80036; stroke-width: 1.5;" width="82" x="49" y="35.4531"/><ellipse cx="64" cy="51.4531" fill="#ADD1B2" rx="11" ry="11" style="stroke: #A80036; stroke-width: 1.0;"/><path d="M66.3438,47.125 L66.5156,47.2031 C66.7344,46.8906 66.9375,46.7969 67.2344,46.7969 C67.5313,46.7969 67.8125,46.9375 67.9688,47.2031 C68.0625,47.3594 68.0781,47.4844 68.0781,47.9219 L68.0781,49.3438 C68.0781,49.7656 68.0469,49.9531 67.9375,50.1094 C67.7656,50.3281 67.5,50.4688 67.2344,50.4688 C67.0156,50.4688 66.7813,50.3594 66.6406,50.2188 C66.5,50.0938 66.4688,49.9688 66.4063,49.5625 C66.3125,49.1563 66.1406,48.9375 65.6563,48.6563 C65.1875,48.4063 64.5781,48.25 64,48.25 C62.2656,48.25 61.0156,49.5625 61.0156,51.3438 L61.0156,52.4375 C61.0156,54.1406 62.3125,55.2344 64.3594,55.2344 C65.125,55.2344 65.8125,55.1094 66.2344,54.8438 C66.4219,54.75 66.4219,54.75 66.875,54.2656 C67.0625,54.0781 67.2656,54 67.4844,54 C67.9531,54 68.3438,54.3906 68.3438,54.8438 C68.3438,55.2344 68.0156,55.6875 67.4375,56.0938 C66.6875,56.6406 65.5313,56.9375 64.3125,56.9375 C61.4219,56.9375 59.3125,55.0469 59.3125,52.4688 L59.3125,51.3438 C59.3125,48.625 61.3125,46.5469 63.9375,46.5469 C64.8125,46.5469 65.4063,46.6875 66.3438,47.125 Z "/><text fill="#000000" font-family="sans-serif" font-size="12" lengthAdjust="spacingAndGlyphs" textLength="50" x="78" y="55.6074">Director</text><line style="stroke: #A80036; stroke-width: 1.5;" x1="50" x2="130" y1="67.4531" y2="67.4531"/><line style="stroke: #A80036; stroke-width: 1.5;" x1="50" x2="130" y1="75.4531" y2="75.4531"/><text fill="#000000" font-family="sans-serif" font-size="11" lengthAdjust="spacingAndGlyphs" textLength="61" x="55" y="89.6636">construct()</text><!--class AbstractVehicleBuilder--><rect fill="#FEFECE" filter="url(#fkioxxqjd23j7)" height="60.8047" id="AbstractVehicleBuilder" style="stroke: #A80036; stroke-width: 1.5;" width="172" x="6" y="162.9531"/><ellipse cx="21" cy="178.9531" fill="#A9DCDF" rx="11" ry="11" style="stroke: #A80036; stroke-width: 1.0;"/><path d="M22.5781,180.7656 L18.5313,180.7656 L18.1406,181.75 L18.5313,181.75 C18.9844,181.75 19.125,181.7813 19.2969,181.9063 C19.5156,182.0781 19.6406,182.3281 19.6406,182.6094 C19.6406,182.8906 19.5,183.1875 19.2344,183.3281 C19.1094,183.4219 18.8906,183.4531 18.5313,183.4531 L16.2656,183.4531 C15.5156,183.4531 15.1406,183.1719 15.1406,182.6094 C15.1406,182.3125 15.2969,182.0313 15.5469,181.875 C15.7031,181.7656 15.8594,181.75 16.2813,181.75 L18.9219,175.2344 L17.8438,175.2344 C17.4063,175.2344 17.2344,175.2031 17.0625,175.0938 C16.8438,174.9219 16.7031,174.6719 16.7031,174.3906 C16.7031,174.1094 16.8594,173.8281 17.1094,173.6563 C17.2656,173.5625 17.3906,173.5469 17.8438,173.5469 L21.5156,173.5469 L24.9063,181.75 C25.375,181.75 25.5313,181.7813 25.7031,181.9219 C25.9219,182.0781 26.0625,182.3281 26.0625,182.6094 C26.0625,182.8906 25.9063,183.1875 25.6563,183.3281 C25.5156,183.4219 25.2969,183.4531 24.9375,183.4531 L22.5781,183.4531 C22.1563,183.4531 21.9531,183.4063 21.8125,183.2813 C21.5938,183.125 21.4531,182.875 21.4531,182.6094 C21.4531,182.3125 21.6094,182.0313 21.8594,181.875 C22.0156,181.7656 22.125,181.75 22.5781,181.75 L22.9688,181.75 Z M21.875,179.0625 L20.5469,175.7969 L19.2031,179.0625 Z "/><text fill="#000000" font-family="sans-serif" font-size="12" font-style="italic" lengthAdjust="spacingAndGlyphs" textLength="140" x="35" y="183.1074">AbstractVehicleBuilder</text><line style="stroke: #A80036; stroke-width: 1.5;" x1="7" x2="177" y1="194.9531" y2="194.9531"/><line style="stroke: #A80036; stroke-width: 1.5;" x1="7" x2="177" y1="202.9531" y2="202.9531"/><text fill="#000000" font-family="sans-serif" font-size="11" lengthAdjust="spacingAndGlyphs" textLength="109" x="12" y="217.1636">abstract buildPart()</text><!--class ConcreteVehicleBuilder--><rect fill="#FEFECE" filter="url(#fkioxxqjd23j7)" height="73.6094" id="ConcreteVehicleBuilder" style="stroke: #A80036; stroke-width: 1.5;" width="177" x="166.5" y="28.9531"/><ellipse cx="181.5" cy="44.9531" fill="#ADD1B2" rx="11" ry="11" style="stroke: #A80036; stroke-width: 1.0;"/><path d="M183.8438,40.625 L184.0156,40.7031 C184.2344,40.3906 184.4375,40.2969 184.7344,40.2969 C185.0313,40.2969 185.3125,40.4375 185.4688,40.7031 C185.5625,40.8594 185.5781,40.9844 185.5781,41.4219 L185.5781,42.8438 C185.5781,43.2656 185.5469,43.4531 185.4375,43.6094 C185.2656,43.8281 185,43.9688 184.7344,43.9688 C184.5156,43.9688 184.2813,43.8594 184.1406,43.7188 C184,43.5938 183.9688,43.4688 183.9063,43.0625 C183.8125,42.6563 183.6406,42.4375 183.1563,42.1563 C182.6875,41.9063 182.0781,41.75 181.5,41.75 C179.7656,41.75 178.5156,43.0625 178.5156,44.8438 L178.5156,45.9375 C178.5156,47.6406 179.8125,48.7344 181.8594,48.7344 C182.625,48.7344 183.3125,48.6094 183.7344,48.3438 C183.9219,48.25 183.9219,48.25 184.375,47.7656 C184.5625,47.5781 184.7656,47.5 184.9844,47.5 C185.4531,47.5 185.8438,47.8906 185.8438,48.3438 C185.8438,48.7344 185.5156,49.1875 184.9375,49.5938 C184.1875,50.1406 183.0313,50.4375 181.8125,50.4375 C178.9219,50.4375 176.8125,48.5469 176.8125,45.9688 L176.8125,44.8438 C176.8125,42.125 178.8125,40.0469 181.4375,40.0469 C182.3125,40.0469 182.9063,40.1875 183.8438,40.625 Z "/><text fill="#000000" font-family="sans-serif" font-size="12" lengthAdjust="spacingAndGlyphs" textLength="145" x="195.5" y="49.1074">ConcreteVehicleBuilder</text><line style="stroke: #A80036; stroke-width: 1.5;" x1="167.5" x2="342.5" y1="60.9531" y2="60.9531"/><line style="stroke: #A80036; stroke-width: 1.5;" x1="167.5" x2="342.5" y1="68.9531" y2="68.9531"/><text fill="#000000" font-family="sans-serif" font-size="11" lengthAdjust="spacingAndGlyphs" textLength="58" x="172.5" y="83.1636">buildPart()</text><text fill="#000000" font-family="sans-serif" font-size="11" lengthAdjust="spacingAndGlyphs" textLength="61" x="172.5" y="95.9683">getResult()</text><!--class Vehicle--><rect fill="#FEFECE" filter="url(#fkioxxqjd23j7)" height="48" id="Vehicle" style="stroke: #A80036; stroke-width: 1.5;" width="77" x="216.5" y="169.4531"/><ellipse cx="231.5" cy="185.4531" fill="#ADD1B2" rx="11" ry="11" style="stroke: #A80036; stroke-width: 1.0;"/><path d="M233.8438,181.125 L234.0156,181.2031 C234.2344,180.8906 234.4375,180.7969 234.7344,180.7969 C235.0313,180.7969 235.3125,180.9375 235.4688,181.2031 C235.5625,181.3594 235.5781,181.4844 235.5781,181.9219 L235.5781,183.3438 C235.5781,183.7656 235.5469,183.9531 235.4375,184.1094 C235.2656,184.3281 235,184.4688 234.7344,184.4688 C234.5156,184.4688 234.2813,184.3594 234.1406,184.2188 C234,184.0938 233.9688,183.9688 233.9063,183.5625 C233.8125,183.1563 233.6406,182.9375 233.1563,182.6563 C232.6875,182.4063 232.0781,182.25 231.5,182.25 C229.7656,182.25 228.5156,183.5625 228.5156,185.3438 L228.5156,186.4375 C228.5156,188.1406 229.8125,189.2344 231.8594,189.2344 C232.625,189.2344 233.3125,189.1094 233.7344,188.8438 C233.9219,188.75 233.9219,188.75 234.375,188.2656 C234.5625,188.0781 234.7656,188 234.9844,188 C235.4531,188 235.8438,188.3906 235.8438,188.8438 C235.8438,189.2344 235.5156,189.6875 234.9375,190.0938 C234.1875,190.6406 233.0313,190.9375 231.8125,190.9375 C228.9219,190.9375 226.8125,189.0469 226.8125,186.4688 L226.8125,185.3438 C226.8125,182.625 228.8125,180.5469 231.4375,180.5469 C232.3125,180.5469 232.9063,180.6875 233.8438,181.125 Z "/><text fill="#000000" font-family="sans-serif" font-size="12" lengthAdjust="spacingAndGlyphs" textLength="45" x="245.5" y="189.6074">Vehicle</text><line style="stroke: #A80036; stroke-width: 1.5;" x1="217.5" x2="292.5" y1="201.4531" y2="201.4531"/><line style="stroke: #A80036; stroke-width: 1.5;" x1="217.5" x2="292.5" y1="209.4531" y2="209.4531"/><!--link ConcreteVehicleBuilder to AbstractVehicleBuilder--><path d="M207.854,103.2531 C188.682,118.0141 166.405,135.1657 146.538,150.4624 " fill="none" id="ConcreteVehicleBuilder-AbstractVehicleBuilder" style="stroke: #A80036; stroke-width: 1.0;"/><polygon fill="none" points="150.654,156.1273,130.537,162.7822,142.113,145.0344,150.654,156.1273" style="stroke: #A80036; stroke-width: 1.0;"/><!--link ConcreteVehicleBuilder to Vehicle--><path d="M255,103.2531 C255,122.5411 255,145.9101 255,163.8896 " fill="none" id="ConcreteVehicleBuilder-Vehicle" style="stroke: #A80036; stroke-width: 1.0; stroke-dasharray: 7.0,7.0;"/><polygon fill="#A80036" points="255,169.2859,259,160.2859,255,164.2859,251,160.2859,255,169.2859" style="stroke: #A80036; stroke-width: 1.0;"/><!--link Director to AbstractVehicleBuilder--><path d="M90.474,96.6951 C90.7654,114.9811 91.1401,138.4961 91.4453,157.647 " fill="none" id="Director-AbstractVehicleBuilder" style="stroke: #A80036; stroke-width: 1.0;"/><polygon fill="#A80036" points="91.5294,162.9248,95.3854,153.8622,91.4497,157.9255,87.3864,153.9897,91.5294,162.9248" style="stroke: #A80036; stroke-width: 1.0;"/><!--
@startuml
title BuilderExample
class Director{
    construct()
}

abstract class AbstractVehicleBuilder{
    abstract buildPart()
}

class ConcreteVehicleBuilder{
    buildPart()
    getResult()
}

class Vehicle{

}

ConcreteVehicleBuilder - -|> AbstractVehicleBuilder
ConcreteVehicleBuilder ..> Vehicle
Director - -> AbstractVehicleBuilder
@enduml

PlantUML version 1.2019.08(Sat Jul 13 19:25:14 UTC 2019)
(GPL source distribution)
Java Runtime: Java(TM) SE Runtime Environment
JVM: Java HotSpot(TM) 64-Bit Server VM
Java Version: 1.7.0_25-b15
Operating System: Linux
Default Encoding: UTF-8
Language: en
Country: US
--></g></svg>