<?xml version="1.0" encoding="UTF-8" standalone="no"?><svg xmlns="http://www.w3.org/2000/svg" xmlns:xlink="http://www.w3.org/1999/xlink" contentScriptType="application/ecmascript" contentStyleType="text/css" height="234px" preserveAspectRatio="none" style="width:446px;height:234px;" version="1.1" viewBox="0 0 446 234" width="446px" zoomAndPan="magnify"><defs><filter height="300%" id="f1mbv0i0xapu8u" width="300%" x="-1" y="-1"><feGaussianBlur result="blurOut" stdDeviation="2.0"/><feColorMatrix in="blurOut" result="blurOut2" type="matrix" values="0 0 0 0 0 0 0 0 0 0 0 0 0 0 0 0 0 0 .4 0"/><feOffset dx="4.0" dy="4.0" in="blurOut2" result="blurOut3"/><feBlend in="SourceGraphic" in2="blurOut3" mode="normal"/></filter></defs><g><text fill="#000000" font-family="sans-serif" font-size="18" lengthAdjust="spacingAndGlyphs" textLength="268" x="93" y="16.708">ChainOfResponsibilityExample</text><!--class Client--><rect fill="#FEFECE" filter="url(#f1mbv0i0xapu8u)" height="48" id="Client" style="stroke: #A80036; stroke-width: 1.5;" width="67" x="6" y="35.4531"/><ellipse cx="21" cy="51.4531" fill="#ADD1B2" rx="11" ry="11" style="stroke: #A80036; stroke-width: 1.0;"/><path d="M23.3438,47.125 L23.5156,47.2031 C23.7344,46.8906 23.9375,46.7969 24.2344,46.7969 C24.5313,46.7969 24.8125,46.9375 24.9688,47.2031 C25.0625,47.3594 25.0781,47.4844 25.0781,47.9219 L25.0781,49.3438 C25.0781,49.7656 25.0469,49.9531 24.9375,50.1094 C24.7656,50.3281 24.5,50.4688 24.2344,50.4688 C24.0156,50.4688 23.7813,50.3594 23.6406,50.2188 C23.5,50.0938 23.4688,49.9688 23.4063,49.5625 C23.3125,49.1563 23.1406,48.9375 22.6563,48.6563 C22.1875,48.4063 21.5781,48.25 21,48.25 C19.2656,48.25 18.0156,49.5625 18.0156,51.3438 L18.0156,52.4375 C18.0156,54.1406 19.3125,55.2344 21.3594,55.2344 C22.125,55.2344 22.8125,55.1094 23.2344,54.8438 C23.4219,54.75 23.4219,54.75 23.875,54.2656 C24.0625,54.0781 24.2656,54 24.4844,54 C24.9531,54 25.3438,54.3906 25.3438,54.8438 C25.3438,55.2344 25.0156,55.6875 24.4375,56.0938 C23.6875,56.6406 22.5313,56.9375 21.3125,56.9375 C18.4219,56.9375 16.3125,55.0469 16.3125,52.4688 L16.3125,51.3438 C16.3125,48.625 18.3125,46.5469 20.9375,46.5469 C21.8125,46.5469 22.4063,46.6875 23.3438,47.125 Z "/><text fill="#000000" font-family="sans-serif" font-size="12" lengthAdjust="spacingAndGlyphs" textLength="35" x="35" y="55.6074">Client</text><line style="stroke: #A80036; stroke-width: 1.5;" x1="7" x2="72" y1="67.4531" y2="67.4531"/><line style="stroke: #A80036; stroke-width: 1.5;" x1="7" x2="72" y1="75.4531" y2="75.4531"/><!--class Handler--><rect fill="#FEFECE" filter="url(#f1mbv0i0xapu8u)" height="73.6094" id="Handler" style="stroke: #A80036; stroke-width: 1.5;" width="155" x="104" y="149.9531"/><ellipse cx="152.75" cy="165.9531" fill="#A9DCDF" rx="11" ry="11" style="stroke: #A80036; stroke-width: 1.0;"/><path d="M154.3281,167.7656 L150.2813,167.7656 L149.8906,168.75 L150.2813,168.75 C150.7344,168.75 150.875,168.7813 151.0469,168.9063 C151.2656,169.0781 151.3906,169.3281 151.3906,169.6094 C151.3906,169.8906 151.25,170.1875 150.9844,170.3281 C150.8594,170.4219 150.6406,170.4531 150.2813,170.4531 L148.0156,170.4531 C147.2656,170.4531 146.8906,170.1719 146.8906,169.6094 C146.8906,169.3125 147.0469,169.0313 147.2969,168.875 C147.4531,168.7656 147.6094,168.75 148.0313,168.75 L150.6719,162.2344 L149.5938,162.2344 C149.1563,162.2344 148.9844,162.2031 148.8125,162.0938 C148.5938,161.9219 148.4531,161.6719 148.4531,161.3906 C148.4531,161.1094 148.6094,160.8281 148.8594,160.6563 C149.0156,160.5625 149.1406,160.5469 149.5938,160.5469 L153.2656,160.5469 L156.6563,168.75 C157.125,168.75 157.2813,168.7813 157.4531,168.9219 C157.6719,169.0781 157.8125,169.3281 157.8125,169.6094 C157.8125,169.8906 157.6563,170.1875 157.4063,170.3281 C157.2656,170.4219 157.0469,170.4531 156.6875,170.4531 L154.3281,170.4531 C153.9063,170.4531 153.7031,170.4063 153.5625,170.2813 C153.3438,170.125 153.2031,169.875 153.2031,169.6094 C153.2031,169.3125 153.3594,169.0313 153.6094,168.875 C153.7656,168.7656 153.875,168.75 154.3281,168.75 L154.7188,168.75 Z M153.625,166.0625 L152.2969,162.7969 L150.9531,166.0625 Z "/><text fill="#000000" font-family="sans-serif" font-size="12" font-style="italic" lengthAdjust="spacingAndGlyphs" textLength="49" x="173.25" y="170.1074">Handler</text><line style="stroke: #A80036; stroke-width: 1.5;" x1="105" x2="258" y1="181.9531" y2="181.9531"/><text fill="#000000" font-family="sans-serif" font-size="11" lengthAdjust="spacingAndGlyphs" textLength="59" x="110" y="196.1636">successor</text><line style="stroke: #A80036; stroke-width: 1.5;" x1="105" x2="258" y1="202.7578" y2="202.7578"/><text fill="#000000" font-family="sans-serif" font-size="11" lengthAdjust="spacingAndGlyphs" textLength="143" x="110" y="216.9683">abstract handleRequest()</text><!--class ConcreteHandler1--><rect fill="#FEFECE" filter="url(#f1mbv0i0xapu8u)" height="60.8047" id="ConcreteHandler1" style="stroke: #A80036; stroke-width: 1.5;" width="146" x="108.5" y="28.9531"/><ellipse cx="123.5" cy="44.9531" fill="#ADD1B2" rx="11" ry="11" style="stroke: #A80036; stroke-width: 1.0;"/><path d="M125.8438,40.625 L126.0156,40.7031 C126.2344,40.3906 126.4375,40.2969 126.7344,40.2969 C127.0313,40.2969 127.3125,40.4375 127.4688,40.7031 C127.5625,40.8594 127.5781,40.9844 127.5781,41.4219 L127.5781,42.8438 C127.5781,43.2656 127.5469,43.4531 127.4375,43.6094 C127.2656,43.8281 127,43.9688 126.7344,43.9688 C126.5156,43.9688 126.2813,43.8594 126.1406,43.7188 C126,43.5938 125.9688,43.4688 125.9063,43.0625 C125.8125,42.6563 125.6406,42.4375 125.1563,42.1563 C124.6875,41.9063 124.0781,41.75 123.5,41.75 C121.7656,41.75 120.5156,43.0625 120.5156,44.8438 L120.5156,45.9375 C120.5156,47.6406 121.8125,48.7344 123.8594,48.7344 C124.625,48.7344 125.3125,48.6094 125.7344,48.3438 C125.9219,48.25 125.9219,48.25 126.375,47.7656 C126.5625,47.5781 126.7656,47.5 126.9844,47.5 C127.4531,47.5 127.8438,47.8906 127.8438,48.3438 C127.8438,48.7344 127.5156,49.1875 126.9375,49.5938 C126.1875,50.1406 125.0313,50.4375 123.8125,50.4375 C120.9219,50.4375 118.8125,48.5469 118.8125,45.9688 L118.8125,44.8438 C118.8125,42.125 120.8125,40.0469 123.4375,40.0469 C124.3125,40.0469 124.9063,40.1875 125.8438,40.625 Z "/><text fill="#000000" font-family="sans-serif" font-size="12" lengthAdjust="spacingAndGlyphs" textLength="114" x="137.5" y="49.1074">ConcreteHandler1</text><line style="stroke: #A80036; stroke-width: 1.5;" x1="109.5" x2="253.5" y1="60.9531" y2="60.9531"/><line style="stroke: #A80036; stroke-width: 1.5;" x1="109.5" x2="253.5" y1="68.9531" y2="68.9531"/><text fill="#000000" font-family="sans-serif" font-size="11" lengthAdjust="spacingAndGlyphs" textLength="92" x="114.5" y="83.1636">handleRequest()</text><!--class ConcreteHandler2--><rect fill="#FEFECE" filter="url(#f1mbv0i0xapu8u)" height="60.8047" id="ConcreteHandler2" style="stroke: #A80036; stroke-width: 1.5;" width="146" x="289.5" y="28.9531"/><ellipse cx="304.5" cy="44.9531" fill="#ADD1B2" rx="11" ry="11" style="stroke: #A80036; stroke-width: 1.0;"/><path d="M306.8438,40.625 L307.0156,40.7031 C307.2344,40.3906 307.4375,40.2969 307.7344,40.2969 C308.0313,40.2969 308.3125,40.4375 308.4688,40.7031 C308.5625,40.8594 308.5781,40.9844 308.5781,41.4219 L308.5781,42.8438 C308.5781,43.2656 308.5469,43.4531 308.4375,43.6094 C308.2656,43.8281 308,43.9688 307.7344,43.9688 C307.5156,43.9688 307.2813,43.8594 307.1406,43.7188 C307,43.5938 306.9688,43.4688 306.9063,43.0625 C306.8125,42.6563 306.6406,42.4375 306.1563,42.1563 C305.6875,41.9063 305.0781,41.75 304.5,41.75 C302.7656,41.75 301.5156,43.0625 301.5156,44.8438 L301.5156,45.9375 C301.5156,47.6406 302.8125,48.7344 304.8594,48.7344 C305.625,48.7344 306.3125,48.6094 306.7344,48.3438 C306.9219,48.25 306.9219,48.25 307.375,47.7656 C307.5625,47.5781 307.7656,47.5 307.9844,47.5 C308.4531,47.5 308.8438,47.8906 308.8438,48.3438 C308.8438,48.7344 308.5156,49.1875 307.9375,49.5938 C307.1875,50.1406 306.0313,50.4375 304.8125,50.4375 C301.9219,50.4375 299.8125,48.5469 299.8125,45.9688 L299.8125,44.8438 C299.8125,42.125 301.8125,40.0469 304.4375,40.0469 C305.3125,40.0469 305.9063,40.1875 306.8438,40.625 Z "/><text fill="#000000" font-family="sans-serif" font-size="12" lengthAdjust="spacingAndGlyphs" textLength="114" x="318.5" y="49.1074">ConcreteHandler2</text><line style="stroke: #A80036; stroke-width: 1.5;" x1="290.5" x2="434.5" y1="60.9531" y2="60.9531"/><line style="stroke: #A80036; stroke-width: 1.5;" x1="290.5" x2="434.5" y1="68.9531" y2="68.9531"/><text fill="#000000" font-family="sans-serif" font-size="11" lengthAdjust="spacingAndGlyphs" textLength="92" x="295.5" y="83.1636">handleRequest()</text><!--link Client to Handler--><path d="M65.545,83.4721 C85.3753,100.9981 113.154,125.5485 136.55,146.2266 " fill="none" id="Client-&gt;Handler" style="stroke: #A80036; stroke-width: 1.0;"/><polygon fill="#A80036" points="140.565,149.7743,136.4707,140.8168,136.8187,146.463,131.1725,146.811,140.565,149.7743" style="stroke: #A80036; stroke-width: 1.0;"/><!--link ConcreteHandler1 to Handler--><path d="M181.5,90.1951 C181.5,102.0361 181.5,116.0691 181.5,129.6901 " fill="none" id="ConcreteHandler1-&gt;Handler" style="stroke: #A80036; stroke-width: 1.0;"/><polygon fill="none" points="188.5,129.7086,181.5,149.7086,174.5,129.7085,188.5,129.7086" style="stroke: #A80036; stroke-width: 1.0;"/><!--link ConcreteHandler2 to Handler--><path d="M319.606,90.1951 C298.828,104.6021 273.369,122.2541 249.996,138.4603 " fill="none" id="ConcreteHandler2-&gt;Handler" style="stroke: #A80036; stroke-width: 1.0;"/><polygon fill="none" points="253.865,144.2951,233.441,149.9386,245.888,132.7901,253.865,144.2951" style="stroke: #A80036; stroke-width: 1.0;"/><!--
@startuml
title ChainOfResponsibilityExample

class Client{
    
}

abstract class Handler{
    abstract handleRequest()
    successor
}

class ConcreteHandler1{
    handleRequest()
}

class ConcreteHandler2{
    handleRequest()
}

Client - -> Handler
ConcreteHandler1 - -|> Handler
ConcreteHandler2 - -|> Handler
@enduml

PlantUML version 1.2019.10beta5(Unknown compile time)
(GPL source distribution)
Java Runtime: Java(TM) SE Runtime Environment
JVM: Java HotSpot(TM) 64-Bit Server VM
Java Version: 1.7.0_25-b15
Operating System: Linux
Default Encoding: UTF-8
Language: en
Country: US
--></g></svg>