<?xml version="1.0" encoding="UTF-8" standalone="no"?><svg xmlns="http://www.w3.org/2000/svg" xmlns:xlink="http://www.w3.org/1999/xlink" contentScriptType="application/ecmascript" contentStyleType="text/css" height="344px" preserveAspectRatio="none" style="width:435px;height:344px;" version="1.1" viewBox="0 0 435 344" width="435px" zoomAndPan="magnify"><defs><filter height="300%" id="flcbxy7dur2le" width="300%" x="-1" y="-1"><feGaussianBlur result="blurOut" stdDeviation="2.0"/><feColorMatrix in="blurOut" result="blurOut2" type="matrix" values="0 0 0 0 0 0 0 0 0 0 0 0 0 0 0 0 0 0 .4 0"/><feOffset dx="4.0" dy="4.0" in="blurOut2" result="blurOut3"/><feBlend in="SourceGraphic" in2="blurOut3" mode="normal"/></filter></defs><g><text fill="#000000" font-family="sans-serif" font-size="18" lengthAdjust="spacing" textLength="145" x="138.5" y="16.708">FaçadeExample</text><!--MD5=[ed6624c6556d5e7b1bd23032162d20b7]
class Client--><rect codeLine="3" fill="#FEFECE" filter="url(#flcbxy7dur2le)" height="60.8047" id="Client" style="stroke:#A80036;stroke-width:1.5;" width="96" x="161" y="27.9531"/><ellipse cx="189.95" cy="43.9531" fill="#ADD1B2" rx="11" ry="11" style="stroke:#A80036;stroke-width:1.0;"/><path d="M192.2938,39.625 C191.3563,39.1875 190.7625,39.0469 189.8875,39.0469 C187.2625,39.0469 185.2625,41.125 185.2625,43.8438 L185.2625,44.9688 C185.2625,47.5469 187.3719,49.4375 190.2625,49.4375 C191.4813,49.4375 192.6375,49.1406 193.3875,48.5938 C193.9656,48.1875 194.2938,47.7344 194.2938,47.3438 C194.2938,46.8906 193.9031,46.5 193.4344,46.5 C193.2156,46.5 193.0125,46.5781 192.825,46.7656 C192.3719,47.25 192.3719,47.25 192.1844,47.3438 C191.7625,47.6094 191.075,47.7344 190.3094,47.7344 C188.2625,47.7344 186.9656,46.6406 186.9656,44.9375 L186.9656,43.8438 C186.9656,42.0625 188.2156,40.75 189.95,40.75 C190.5281,40.75 191.1375,40.9063 191.6063,41.1563 C192.0906,41.4375 192.2625,41.6563 192.3563,42.0625 C192.4188,42.4688 192.45,42.5938 192.5906,42.7188 C192.7313,42.8594 192.9656,42.9688 193.1844,42.9688 C193.45,42.9688 193.7156,42.8281 193.8875,42.6094 C193.9969,42.4531 194.0281,42.2656 194.0281,41.8438 L194.0281,40.4219 C194.0281,39.9844 194.0125,39.8594 193.9188,39.7031 C193.7625,39.4375 193.4813,39.2969 193.1844,39.2969 C192.8875,39.2969 192.6844,39.3906 192.4656,39.7031 L192.2938,39.625 Z " fill="#000000"/><text fill="#000000" font-family="sans-serif" font-size="12" lengthAdjust="spacing" textLength="33" x="207.05" y="48.1074">Client</text><line style="stroke:#A80036;stroke-width:1.5;" x1="162" x2="256" y1="59.9531" y2="59.9531"/><text fill="#000000" font-family="sans-serif" font-size="11" lengthAdjust="spacing" textLength="84" x="167" y="74.1636">Façade façade</text><line style="stroke:#A80036;stroke-width:1.5;" x1="162" x2="256" y1="80.7578" y2="80.7578"/><!--MD5=[48628725299ad4ff8dc3ec1746b4eddb]
class Façade--><rect codeLine="7" fill="#FEFECE" filter="url(#flcbxy7dur2le)" height="60.8047" id="Façade" style="stroke:#A80036;stroke-width:1.5;" width="98" x="160" y="148.9531"/><ellipse cx="184.9" cy="164.9531" fill="#ADD1B2" rx="11" ry="11" style="stroke:#A80036;stroke-width:1.0;"/><path d="M187.2438,160.625 C186.3063,160.1875 185.7125,160.0469 184.8375,160.0469 C182.2125,160.0469 180.2125,162.125 180.2125,164.8438 L180.2125,165.9688 C180.2125,168.5469 182.3219,170.4375 185.2125,170.4375 C186.4313,170.4375 187.5875,170.1406 188.3375,169.5938 C188.9156,169.1875 189.2438,168.7344 189.2438,168.3438 C189.2438,167.8906 188.8531,167.5 188.3844,167.5 C188.1656,167.5 187.9625,167.5781 187.775,167.7656 C187.3219,168.25 187.3219,168.25 187.1344,168.3438 C186.7125,168.6094 186.025,168.7344 185.2594,168.7344 C183.2125,168.7344 181.9156,167.6406 181.9156,165.9375 L181.9156,164.8438 C181.9156,163.0625 183.1656,161.75 184.9,161.75 C185.4781,161.75 186.0875,161.9063 186.5563,162.1563 C187.0406,162.4375 187.2125,162.6563 187.3063,163.0625 C187.3688,163.4688 187.4,163.5938 187.5406,163.7188 C187.6813,163.8594 187.9156,163.9688 188.1344,163.9688 C188.4,163.9688 188.6656,163.8281 188.8375,163.6094 C188.9469,163.4531 188.9781,163.2656 188.9781,162.8438 L188.9781,161.4219 C188.9781,160.9844 188.9625,160.8594 188.8688,160.7031 C188.7125,160.4375 188.4313,160.2969 188.1344,160.2969 C187.8375,160.2969 187.6344,160.3906 187.4156,160.7031 L187.2438,160.625 Z " fill="#000000"/><text fill="#000000" font-family="sans-serif" font-size="12" lengthAdjust="spacing" textLength="44" x="201.1" y="169.1074">Façade</text><line style="stroke:#A80036;stroke-width:1.5;" x1="161" x2="257" y1="180.9531" y2="180.9531"/><line style="stroke:#A80036;stroke-width:1.5;" x1="161" x2="257" y1="188.9531" y2="188.9531"/><text fill="#000000" font-family="sans-serif" font-size="11" lengthAdjust="spacing" textLength="86" x="166" y="203.1636">withdrawCash()</text><!--MD5=[d66314c470faee42835b3cc9a43ec91d]
class FundsChecker--><rect codeLine="11" fill="#FEFECE" filter="url(#flcbxy7dur2le)" height="60.8047" id="FundsChecker" style="stroke:#A80036;stroke-width:1.5;" width="118" x="7" y="269.9531"/><ellipse cx="22" cy="285.9531" fill="#ADD1B2" rx="11" ry="11" style="stroke:#A80036;stroke-width:1.0;"/><path d="M24.3438,281.625 C23.4063,281.1875 22.8125,281.0469 21.9375,281.0469 C19.3125,281.0469 17.3125,283.125 17.3125,285.8438 L17.3125,286.9688 C17.3125,289.5469 19.4219,291.4375 22.3125,291.4375 C23.5313,291.4375 24.6875,291.1406 25.4375,290.5938 C26.0156,290.1875 26.3438,289.7344 26.3438,289.3438 C26.3438,288.8906 25.9531,288.5 25.4844,288.5 C25.2656,288.5 25.0625,288.5781 24.875,288.7656 C24.4219,289.25 24.4219,289.25 24.2344,289.3438 C23.8125,289.6094 23.125,289.7344 22.3594,289.7344 C20.3125,289.7344 19.0156,288.6406 19.0156,286.9375 L19.0156,285.8438 C19.0156,284.0625 20.2656,282.75 22,282.75 C22.5781,282.75 23.1875,282.9063 23.6563,283.1563 C24.1406,283.4375 24.3125,283.6563 24.4063,284.0625 C24.4688,284.4688 24.5,284.5938 24.6406,284.7188 C24.7813,284.8594 25.0156,284.9688 25.2344,284.9688 C25.5,284.9688 25.7656,284.8281 25.9375,284.6094 C26.0469,284.4531 26.0781,284.2656 26.0781,283.8438 L26.0781,282.4219 C26.0781,281.9844 26.0625,281.8594 25.9688,281.7031 C25.8125,281.4375 25.5313,281.2969 25.2344,281.2969 C24.9375,281.2969 24.7344,281.3906 24.5156,281.7031 L24.3438,281.625 Z " fill="#000000"/><text fill="#000000" font-family="sans-serif" font-size="12" lengthAdjust="spacing" textLength="86" x="36" y="290.1074">FundsChecker</text><line style="stroke:#A80036;stroke-width:1.5;" x1="8" x2="124" y1="301.9531" y2="301.9531"/><line style="stroke:#A80036;stroke-width:1.5;" x1="8" x2="124" y1="309.9531" y2="309.9531"/><text fill="#000000" font-family="sans-serif" font-size="11" lengthAdjust="spacing" textLength="74" x="13" y="324.1636">checkFunds()</text><!--MD5=[7e48854349c1e0ece6dda738bd7f0657]
class PinChecker--><rect codeLine="15" fill="#FEFECE" filter="url(#flcbxy7dur2le)" height="60.8047" id="PinChecker" style="stroke:#A80036;stroke-width:1.5;" width="98" x="160" y="269.9531"/><ellipse cx="175" cy="285.9531" fill="#ADD1B2" rx="11" ry="11" style="stroke:#A80036;stroke-width:1.0;"/><path d="M177.3438,281.625 C176.4063,281.1875 175.8125,281.0469 174.9375,281.0469 C172.3125,281.0469 170.3125,283.125 170.3125,285.8438 L170.3125,286.9688 C170.3125,289.5469 172.4219,291.4375 175.3125,291.4375 C176.5313,291.4375 177.6875,291.1406 178.4375,290.5938 C179.0156,290.1875 179.3438,289.7344 179.3438,289.3438 C179.3438,288.8906 178.9531,288.5 178.4844,288.5 C178.2656,288.5 178.0625,288.5781 177.875,288.7656 C177.4219,289.25 177.4219,289.25 177.2344,289.3438 C176.8125,289.6094 176.125,289.7344 175.3594,289.7344 C173.3125,289.7344 172.0156,288.6406 172.0156,286.9375 L172.0156,285.8438 C172.0156,284.0625 173.2656,282.75 175,282.75 C175.5781,282.75 176.1875,282.9063 176.6563,283.1563 C177.1406,283.4375 177.3125,283.6563 177.4063,284.0625 C177.4688,284.4688 177.5,284.5938 177.6406,284.7188 C177.7813,284.8594 178.0156,284.9688 178.2344,284.9688 C178.5,284.9688 178.7656,284.8281 178.9375,284.6094 C179.0469,284.4531 179.0781,284.2656 179.0781,283.8438 L179.0781,282.4219 C179.0781,281.9844 179.0625,281.8594 178.9688,281.7031 C178.8125,281.4375 178.5313,281.2969 178.2344,281.2969 C177.9375,281.2969 177.7344,281.3906 177.5156,281.7031 L177.3438,281.625 Z " fill="#000000"/><text fill="#000000" font-family="sans-serif" font-size="12" lengthAdjust="spacing" textLength="66" x="189" y="290.1074">PinChecker</text><line style="stroke:#A80036;stroke-width:1.5;" x1="161" x2="257" y1="301.9531" y2="301.9531"/><line style="stroke:#A80036;stroke-width:1.5;" x1="161" x2="257" y1="309.9531" y2="309.9531"/><text fill="#000000" font-family="sans-serif" font-size="11" lengthAdjust="spacing" textLength="57" x="166" y="324.1636">checkPin()</text><!--MD5=[a5bf8bc797e67c26245109f541ea37c0]
class accountUpdater--><rect codeLine="19" fill="#FEFECE" filter="url(#flcbxy7dur2le)" height="60.8047" id="accountUpdater" style="stroke:#A80036;stroke-width:1.5;" width="128" x="293" y="269.9531"/><ellipse cx="308" cy="285.9531" fill="#ADD1B2" rx="11" ry="11" style="stroke:#A80036;stroke-width:1.0;"/><path d="M310.3438,281.625 C309.4063,281.1875 308.8125,281.0469 307.9375,281.0469 C305.3125,281.0469 303.3125,283.125 303.3125,285.8438 L303.3125,286.9688 C303.3125,289.5469 305.4219,291.4375 308.3125,291.4375 C309.5313,291.4375 310.6875,291.1406 311.4375,290.5938 C312.0156,290.1875 312.3438,289.7344 312.3438,289.3438 C312.3438,288.8906 311.9531,288.5 311.4844,288.5 C311.2656,288.5 311.0625,288.5781 310.875,288.7656 C310.4219,289.25 310.4219,289.25 310.2344,289.3438 C309.8125,289.6094 309.125,289.7344 308.3594,289.7344 C306.3125,289.7344 305.0156,288.6406 305.0156,286.9375 L305.0156,285.8438 C305.0156,284.0625 306.2656,282.75 308,282.75 C308.5781,282.75 309.1875,282.9063 309.6563,283.1563 C310.1406,283.4375 310.3125,283.6563 310.4063,284.0625 C310.4688,284.4688 310.5,284.5938 310.6406,284.7188 C310.7813,284.8594 311.0156,284.9688 311.2344,284.9688 C311.5,284.9688 311.7656,284.8281 311.9375,284.6094 C312.0469,284.4531 312.0781,284.2656 312.0781,283.8438 L312.0781,282.4219 C312.0781,281.9844 312.0625,281.8594 311.9688,281.7031 C311.8125,281.4375 311.5313,281.2969 311.2344,281.2969 C310.9375,281.2969 310.7344,281.3906 310.5156,281.7031 L310.3438,281.625 Z " fill="#000000"/><text fill="#000000" font-family="sans-serif" font-size="12" lengthAdjust="spacing" textLength="96" x="322" y="290.1074">accountUpdater</text><line style="stroke:#A80036;stroke-width:1.5;" x1="294" x2="420" y1="301.9531" y2="301.9531"/><line style="stroke:#A80036;stroke-width:1.5;" x1="294" x2="420" y1="309.9531" y2="309.9531"/><text fill="#000000" font-family="sans-serif" font-size="11" lengthAdjust="spacing" textLength="93" x="299" y="324.1636">updateAccount()</text><!--MD5=[098fbcc304de385b529fa77612cdd193]
link Façade to FundsChecker--><path codeLine="23" d="M173.284,210.1751 C151.444,228.3491 123.603,251.5175 101.7564,269.6978 " fill="none" id="Façade-FundsChecker" style="stroke:#A80036;stroke-width:1.0;"/><!--MD5=[f14e47f37240f6d07e05b2e407f809c2]
link Façade to PinChecker--><path codeLine="24" d="M209,210.1751 C209,228.3491 209,251.5175 209,269.6978 " fill="none" id="Façade-PinChecker" style="stroke:#A80036;stroke-width:1.0;"/><!--MD5=[90e7ed7be957b0bd60a41fbfb5a30b36]
link Façade to accountUpdater--><path codeLine="25" d="M245.965,210.1751 C268.654,228.4181 297.601,251.693 320.25,269.9042 " fill="none" id="Façade-accountUpdater" style="stroke:#A80036;stroke-width:1.0;"/><!--MD5=[b76b303c40fd14dbbcf57d8a106124e8]
link Client to Façade--><path codeLine="26" d="M209,89.1751 C209,107.3491 209,130.5171 209,148.6981 " fill="none" id="Client-Façade" style="stroke:#A80036;stroke-width:1.0;"/><!--MD5=[893c8e06cc4b440fdd3a9696105f4b80]
@startuml
title FaçadeExample

class Client{
    Façade façade
}

class Façade{
    withdrawCash()
}

class FundsChecker{
    checkFunds()
}

class PinChecker{
    checkPin()
}

class accountUpdater{
    updateAccount()
}

Façade - - FundsChecker
Façade - - PinChecker
Façade - - accountUpdater
Client - - Façade
@enduml

PlantUML version 1.2021.4beta3(Unknown compile time)
(GPL source distribution)
Java Runtime: Java(TM) SE Runtime Environment
JVM: Java HotSpot(TM) 64-Bit Server VM
Default Encoding: UTF-8
Language: en
Country: US
--></g></svg>