<?xml version="1.0" encoding="UTF-8" standalone="no"?><svg xmlns="http://www.w3.org/2000/svg" xmlns:xlink="http://www.w3.org/1999/xlink" contentScriptType="application/ecmascript" contentStyleType="text/css" height="272px" preserveAspectRatio="none" style="width:277px;height:272px;" version="1.1" viewBox="0 0 277 272" width="277px" zoomAndPan="magnify"><defs><filter height="300%" id="frqjv4r2p0n3f" width="300%" x="-1" y="-1"><feGaussianBlur result="blurOut" stdDeviation="2.0"/><feColorMatrix in="blurOut" result="blurOut2" type="matrix" values="0 0 0 0 0 0 0 0 0 0 0 0 0 0 0 0 0 0 .4 0"/><feOffset dx="4.0" dy="4.0" in="blurOut2" result="blurOut3"/><feBlend in="SourceGraphic" in2="blurOut3" mode="normal"/></filter></defs><g><text fill="#000000" font-family="sans-serif" font-size="18" lengthAdjust="spacingAndGlyphs" textLength="160" x="62.5" y="16.708">MementoExample</text><!--class Memento--><rect fill="#FEFECE" filter="url(#frqjv4r2p0n3f)" height="86.4141" id="Memento" style="stroke: #A80036; stroke-width: 1.5;" width="90" x="114" y="174.9531"/><ellipse cx="129" cy="190.9531" fill="#ADD1B2" rx="11" ry="11" style="stroke: #A80036; stroke-width: 1.0;"/><path d="M131.3438,186.625 L131.5156,186.7031 C131.7344,186.3906 131.9375,186.2969 132.2344,186.2969 C132.5313,186.2969 132.8125,186.4375 132.9688,186.7031 C133.0625,186.8594 133.0781,186.9844 133.0781,187.4219 L133.0781,188.8438 C133.0781,189.2656 133.0469,189.4531 132.9375,189.6094 C132.7656,189.8281 132.5,189.9688 132.2344,189.9688 C132.0156,189.9688 131.7813,189.8594 131.6406,189.7188 C131.5,189.5938 131.4688,189.4688 131.4063,189.0625 C131.3125,188.6563 131.1406,188.4375 130.6563,188.1563 C130.1875,187.9063 129.5781,187.75 129,187.75 C127.2656,187.75 126.0156,189.0625 126.0156,190.8438 L126.0156,191.9375 C126.0156,193.6406 127.3125,194.7344 129.3594,194.7344 C130.125,194.7344 130.8125,194.6094 131.2344,194.3438 C131.4219,194.25 131.4219,194.25 131.875,193.7656 C132.0625,193.5781 132.2656,193.5 132.4844,193.5 C132.9531,193.5 133.3438,193.8906 133.3438,194.3438 C133.3438,194.7344 133.0156,195.1875 132.4375,195.5938 C131.6875,196.1406 130.5313,196.4375 129.3125,196.4375 C126.4219,196.4375 124.3125,194.5469 124.3125,191.9688 L124.3125,190.8438 C124.3125,188.125 126.3125,186.0469 128.9375,186.0469 C129.8125,186.0469 130.4063,186.1875 131.3438,186.625 Z "/><text fill="#000000" font-family="sans-serif" font-size="12" lengthAdjust="spacingAndGlyphs" textLength="58" x="143" y="195.1074">Memento</text><line style="stroke: #A80036; stroke-width: 1.5;" x1="115" x2="203" y1="206.9531" y2="206.9531"/><text fill="#000000" font-family="sans-serif" font-size="11" lengthAdjust="spacingAndGlyphs" textLength="29" x="120" y="221.1636">state</text><line style="stroke: #A80036; stroke-width: 1.5;" x1="115" x2="203" y1="227.7578" y2="227.7578"/><text fill="#000000" font-family="sans-serif" font-size="11" lengthAdjust="spacingAndGlyphs" textLength="58" x="120" y="241.9683">GetState()</text><text fill="#000000" font-family="sans-serif" font-size="11" lengthAdjust="spacingAndGlyphs" textLength="57" x="120" y="254.7729">SetState()</text><!--class Originator--><rect fill="#FEFECE" filter="url(#frqjv4r2p0n3f)" height="86.4141" id="Originator" style="stroke: #A80036; stroke-width: 1.5;" width="158" x="6" y="28.9531"/><ellipse cx="49.8" cy="44.9531" fill="#ADD1B2" rx="11" ry="11" style="stroke: #A80036; stroke-width: 1.0;"/><path d="M52.1438,40.625 L52.3156,40.7031 C52.5344,40.3906 52.7375,40.2969 53.0344,40.2969 C53.3313,40.2969 53.6125,40.4375 53.7688,40.7031 C53.8625,40.8594 53.8781,40.9844 53.8781,41.4219 L53.8781,42.8438 C53.8781,43.2656 53.8469,43.4531 53.7375,43.6094 C53.5656,43.8281 53.3,43.9688 53.0344,43.9688 C52.8156,43.9688 52.5813,43.8594 52.4406,43.7188 C52.3,43.5938 52.2688,43.4688 52.2063,43.0625 C52.1125,42.6563 51.9406,42.4375 51.4563,42.1563 C50.9875,41.9063 50.3781,41.75 49.8,41.75 C48.0656,41.75 46.8156,43.0625 46.8156,44.8438 L46.8156,45.9375 C46.8156,47.6406 48.1125,48.7344 50.1594,48.7344 C50.925,48.7344 51.6125,48.6094 52.0344,48.3438 C52.2219,48.25 52.2219,48.25 52.675,47.7656 C52.8625,47.5781 53.0656,47.5 53.2844,47.5 C53.7531,47.5 54.1438,47.8906 54.1438,48.3438 C54.1438,48.7344 53.8156,49.1875 53.2375,49.5938 C52.4875,50.1406 51.3313,50.4375 50.1125,50.4375 C47.2219,50.4375 45.1125,48.5469 45.1125,45.9688 L45.1125,44.8438 C45.1125,42.125 47.1125,40.0469 49.7375,40.0469 C50.6125,40.0469 51.2063,40.1875 52.1438,40.625 Z "/><text fill="#000000" font-family="sans-serif" font-size="12" lengthAdjust="spacingAndGlyphs" textLength="62" x="70.2" y="49.1074">Originator</text><line style="stroke: #A80036; stroke-width: 1.5;" x1="7" x2="163" y1="60.9531" y2="60.9531"/><text fill="#000000" font-family="sans-serif" font-size="11" lengthAdjust="spacingAndGlyphs" textLength="30" x="12" y="75.1636">State</text><line style="stroke: #A80036; stroke-width: 1.5;" x1="7" x2="163" y1="81.7578" y2="81.7578"/><text fill="#000000" font-family="sans-serif" font-size="11" lengthAdjust="spacingAndGlyphs" textLength="98" x="12" y="95.9683">CreateMemento()</text><text fill="#000000" font-family="sans-serif" font-size="11" lengthAdjust="spacingAndGlyphs" textLength="146" x="12" y="108.7729">SetMemento(Memento m)</text><!--class Client--><rect fill="#FEFECE" filter="url(#frqjv4r2p0n3f)" height="48" id="Client" style="stroke: #A80036; stroke-width: 1.5;" width="67" x="199.5" y="47.9531"/><ellipse cx="214.5" cy="63.9531" fill="#ADD1B2" rx="11" ry="11" style="stroke: #A80036; stroke-width: 1.0;"/><path d="M216.8438,59.625 L217.0156,59.7031 C217.2344,59.3906 217.4375,59.2969 217.7344,59.2969 C218.0313,59.2969 218.3125,59.4375 218.4688,59.7031 C218.5625,59.8594 218.5781,59.9844 218.5781,60.4219 L218.5781,61.8438 C218.5781,62.2656 218.5469,62.4531 218.4375,62.6094 C218.2656,62.8281 218,62.9688 217.7344,62.9688 C217.5156,62.9688 217.2813,62.8594 217.1406,62.7188 C217,62.5938 216.9688,62.4688 216.9063,62.0625 C216.8125,61.6563 216.6406,61.4375 216.1563,61.1563 C215.6875,60.9063 215.0781,60.75 214.5,60.75 C212.7656,60.75 211.5156,62.0625 211.5156,63.8438 L211.5156,64.9375 C211.5156,66.6406 212.8125,67.7344 214.8594,67.7344 C215.625,67.7344 216.3125,67.6094 216.7344,67.3438 C216.9219,67.25 216.9219,67.25 217.375,66.7656 C217.5625,66.5781 217.7656,66.5 217.9844,66.5 C218.4531,66.5 218.8438,66.8906 218.8438,67.3438 C218.8438,67.7344 218.5156,68.1875 217.9375,68.5938 C217.1875,69.1406 216.0313,69.4375 214.8125,69.4375 C211.9219,69.4375 209.8125,67.5469 209.8125,64.9688 L209.8125,63.8438 C209.8125,61.125 211.8125,59.0469 214.4375,59.0469 C215.3125,59.0469 215.9063,59.1875 216.8438,59.625 Z "/><text fill="#000000" font-family="sans-serif" font-size="12" lengthAdjust="spacingAndGlyphs" textLength="35" x="228.5" y="68.1074">Client</text><line style="stroke: #A80036; stroke-width: 1.5;" x1="200.5" x2="265.5" y1="79.9531" y2="79.9531"/><line style="stroke: #A80036; stroke-width: 1.5;" x1="200.5" x2="265.5" y1="87.9531" y2="87.9531"/><!--link Originator to Memento--><path d="M106.603,114.9911 C113.306,128.0361 120.831,142.6781 128.041,156.7081 " fill="none" id="Originator-Memento" style="stroke: #A80036; stroke-width: 1.0;"/><polygon fill="none" points="134.327,153.6251,137.242,174.6137,121.875,160.0241,134.327,153.6251" style="stroke: #A80036; stroke-width: 1.0;"/><!--link Client to Memento--><path d="M215.6266,106.7625 C215.6266,106.7625 196.249,144.4681 186.78,162.8941 " fill="none" id="Client-Memento" style="stroke: #A80036; stroke-width: 1.0;"/><polygon fill="#A80036" points="180.71,174.7062,188.3813,168.5295,182.9953,170.259,181.2658,164.8731,180.71,174.7062" style="stroke: #A80036; stroke-width: 1.0;"/><line style="stroke: #A80036; stroke-width: 1.0;" x1="182.9953" x2="186.652" y1="170.259" y2="163.1436"/><polygon fill="#FFFFFF" points="221.111,96.0891,214.811,99.5977,215.6266,106.7625,221.9266,103.254,221.111,96.0891" style="stroke: #A80036; stroke-width: 1.0;"/><!--
@startuml
title MementoExample

class Memento{
    GetState()
    SetState()
    state
}

class Originator{
    CreateMemento()
    SetMemento(Memento m)
    State
}

class Client

Originator - -|> Memento
Client o- -> Memento
@enduml

PlantUML version 1.2019.08(Sat Jul 13 19:25:14 UTC 2019)
(GPL source distribution)
Java Runtime: Java(TM) SE Runtime Environment
JVM: Java HotSpot(TM) 64-Bit Server VM
Java Version: 1.7.0_25-b15
Operating System: Linux
Default Encoding: UTF-8
Language: en
Country: US
--></g></svg>