<?xml version="1.0" encoding="UTF-8" standalone="no"?><svg xmlns="http://www.w3.org/2000/svg" xmlns:xlink="http://www.w3.org/1999/xlink" contentScriptType="application/ecmascript" contentStyleType="text/css" height="223px" preserveAspectRatio="none" style="width:176px;height:223px;background:#FFFFFF;" version="1.1" viewBox="0 0 176 223" width="176px" zoomAndPan="magnify"><defs><filter height="300%" id="fj0ltz6zc7uvl" width="300%" x="-1" y="-1"><feGaussianBlur result="blurOut" stdDeviation="2.0"/><feColorMatrix in="blurOut" result="blurOut2" type="matrix" values="0 0 0 0 0 0 0 0 0 0 0 0 0 0 0 0 0 0 .4 0"/><feOffset dx="4.0" dy="4.0" in="blurOut2" result="blurOut3"/><feBlend in="SourceGraphic" in2="blurOut3" mode="normal"/></filter></defs><g><text fill="#000000" font-family="sans-serif" font-size="18" lengthAdjust="spacing" textLength="166" x="2" y="16.708">SingletonExample</text><!--MD5=[2f4e497837a991172d40b04b7a7d0ca2]
class Singleton--><rect codeLine="2" fill="#FEFECE" filter="url(#fj0ltz6zc7uvl)" height="60.8047" id="Singleton" style="stroke:#A80036;stroke-width:1.5;" width="88" x="44" y="148.9531"/><ellipse cx="59" cy="164.9531" fill="#ADD1B2" rx="11" ry="11" style="stroke:#A80036;stroke-width:1.0;"/><path d="M61.3438,160.625 C60.4063,160.1875 59.8125,160.0469 58.9375,160.0469 C56.3125,160.0469 54.3125,162.125 54.3125,164.8438 L54.3125,165.9688 C54.3125,168.5469 56.4219,170.4375 59.3125,170.4375 C60.5313,170.4375 61.6875,170.1406 62.4375,169.5938 C63.0156,169.1875 63.3438,168.7344 63.3438,168.3438 C63.3438,167.8906 62.9531,167.5 62.4844,167.5 C62.2656,167.5 62.0625,167.5781 61.875,167.7656 C61.4219,168.25 61.4219,168.25 61.2344,168.3438 C60.8125,168.6094 60.125,168.7344 59.3594,168.7344 C57.3125,168.7344 56.0156,167.6406 56.0156,165.9375 L56.0156,164.8438 C56.0156,163.0625 57.2656,161.75 59,161.75 C59.5781,161.75 60.1875,161.9063 60.6563,162.1563 C61.1406,162.4375 61.3125,162.6563 61.4063,163.0625 C61.4688,163.4688 61.5,163.5938 61.6406,163.7188 C61.7813,163.8594 62.0156,163.9688 62.2344,163.9688 C62.5,163.9688 62.7656,163.8281 62.9375,163.6094 C63.0469,163.4531 63.0781,163.2656 63.0781,162.8438 L63.0781,161.4219 C63.0781,160.9844 63.0625,160.8594 62.9688,160.7031 C62.8125,160.4375 62.5313,160.2969 62.2344,160.2969 C61.9375,160.2969 61.7344,160.3906 61.5156,160.7031 L61.3438,160.625 Z " fill="#000000"/><text fill="#000000" font-family="sans-serif" font-size="12" lengthAdjust="spacing" textLength="56" x="73" y="169.1074">Singleton</text><line style="stroke:#A80036;stroke-width:1.5;" x1="45" x2="131" y1="180.9531" y2="180.9531"/><line style="stroke:#A80036;stroke-width:1.5;" x1="45" x2="131" y1="188.9531" y2="188.9531"/><text fill="#000000" font-family="sans-serif" font-size="11" lengthAdjust="spacing" textLength="56" x="50" y="203.1636">Instance()</text><!--MD5=[ed6624c6556d5e7b1bd23032162d20b7]
class Client--><rect codeLine="6" fill="#FEFECE" filter="url(#fj0ltz6zc7uvl)" height="60.8047" id="Client" style="stroke:#A80036;stroke-width:1.5;" width="148" x="14" y="27.9531"/><ellipse cx="67.25" cy="43.9531" fill="#ADD1B2" rx="11" ry="11" style="stroke:#A80036;stroke-width:1.0;"/><path d="M69.5938,39.625 C68.6563,39.1875 68.0625,39.0469 67.1875,39.0469 C64.5625,39.0469 62.5625,41.125 62.5625,43.8438 L62.5625,44.9688 C62.5625,47.5469 64.6719,49.4375 67.5625,49.4375 C68.7813,49.4375 69.9375,49.1406 70.6875,48.5938 C71.2656,48.1875 71.5938,47.7344 71.5938,47.3438 C71.5938,46.8906 71.2031,46.5 70.7344,46.5 C70.5156,46.5 70.3125,46.5781 70.125,46.7656 C69.6719,47.25 69.6719,47.25 69.4844,47.3438 C69.0625,47.6094 68.375,47.7344 67.6094,47.7344 C65.5625,47.7344 64.2656,46.6406 64.2656,44.9375 L64.2656,43.8438 C64.2656,42.0625 65.5156,40.75 67.25,40.75 C67.8281,40.75 68.4375,40.9063 68.9063,41.1563 C69.3906,41.4375 69.5625,41.6563 69.6563,42.0625 C69.7188,42.4688 69.75,42.5938 69.8906,42.7188 C70.0313,42.8594 70.2656,42.9688 70.4844,42.9688 C70.75,42.9688 71.0156,42.8281 71.1875,42.6094 C71.2969,42.4531 71.3281,42.2656 71.3281,41.8438 L71.3281,40.4219 C71.3281,39.9844 71.3125,39.8594 71.2188,39.7031 C71.0625,39.4375 70.7813,39.2969 70.4844,39.2969 C70.1875,39.2969 69.9844,39.3906 69.7656,39.7031 L69.5938,39.625 Z " fill="#000000"/><text fill="#000000" font-family="sans-serif" font-size="12" lengthAdjust="spacing" textLength="33" x="87.75" y="48.1074">Client</text><line style="stroke:#A80036;stroke-width:1.5;" x1="15" x2="161" y1="59.9531" y2="59.9531"/><line style="stroke:#A80036;stroke-width:1.5;" x1="15" x2="161" y1="67.9531" y2="67.9531"/><text fill="#000000" font-family="sans-serif" font-size="11" lengthAdjust="spacing" textLength="136" x="20" y="82.1636">getDataFromSingleton()</text><!--MD5=[724c1241759132d3b78d3055bdce0893]
link Client to Singleton--><path codeLine="10" d="M88,89.1751 C88,105.6451 88,126.2173 88,143.4613 " fill="none" id="Client-to-Singleton" style="stroke:#A80036;stroke-width:1.0;"/><polygon fill="#A80036" points="88,148.6978,92,139.6978,88,143.6978,84,139.6978,88,148.6978" style="stroke:#A80036;stroke-width:1.0;"/><!--MD5=[5bfd7bb52b198cc4fd064675d3d05d33]
@startuml
title SingletonExample
class Singleton{
    Instance()
}

class Client{
    getDataFromSingleton()
}

Client - -> Singleton
@enduml

PlantUML version 1.2021.9beta2(Unknown compile time)
(GPL source distribution)
Java Runtime: Java(TM) SE Runtime Environment
JVM: Java HotSpot(TM) 64-Bit Server VM
Default Encoding: UTF-8
Language: en
Country: US
--></g></svg>