<?xml version="1.0" encoding="UTF-8" standalone="no"?><svg xmlns="http://www.w3.org/2000/svg" xmlns:xlink="http://www.w3.org/1999/xlink" contentScriptType="application/ecmascript" contentStyleType="text/css" height="223px" preserveAspectRatio="none" style="width:466px;height:223px;background:#FFFFFF;" version="1.1" viewBox="0 0 466 223" width="466px" zoomAndPan="magnify"><defs><filter height="300%" id="fqkh03kz16te1" width="300%" x="-1" y="-1"><feGaussianBlur result="blurOut" stdDeviation="2.0"/><feColorMatrix in="blurOut" result="blurOut2" type="matrix" values="0 0 0 0 0 0 0 0 0 0 0 0 0 0 0 0 0 0 .4 0"/><feOffset dx="4.0" dy="4.0" in="blurOut2" result="blurOut3"/><feBlend in="SourceGraphic" in2="blurOut3" mode="normal"/></filter></defs><g><text fill="#000000" font-family="sans-serif" font-size="18" lengthAdjust="spacing" textLength="160" x="146.5" y="16.708">StrategyExample</text><!--MD5=[56d687d2e1a52292188fb9dd38e76fc0]
class TalkStrategy--><rect codeLine="4" fill="#FEFECE" filter="url(#fqkh03kz16te1)" height="60.8047" id="TalkStrategy" style="stroke:#A80036;stroke-width:1.5;" width="125" x="167" y="148.9531"/><ellipse cx="190.1" cy="164.9531" fill="#ADD1B2" rx="11" ry="11" style="stroke:#A80036;stroke-width:1.0;"/><path d="M192.4438,160.625 C191.5063,160.1875 190.9125,160.0469 190.0375,160.0469 C187.4125,160.0469 185.4125,162.125 185.4125,164.8438 L185.4125,165.9688 C185.4125,168.5469 187.5219,170.4375 190.4125,170.4375 C191.6313,170.4375 192.7875,170.1406 193.5375,169.5938 C194.1156,169.1875 194.4438,168.7344 194.4438,168.3438 C194.4438,167.8906 194.0531,167.5 193.5844,167.5 C193.3656,167.5 193.1625,167.5781 192.975,167.7656 C192.5219,168.25 192.5219,168.25 192.3344,168.3438 C191.9125,168.6094 191.225,168.7344 190.4594,168.7344 C188.4125,168.7344 187.1156,167.6406 187.1156,165.9375 L187.1156,164.8438 C187.1156,163.0625 188.3656,161.75 190.1,161.75 C190.6781,161.75 191.2875,161.9063 191.7563,162.1563 C192.2406,162.4375 192.4125,162.6563 192.5063,163.0625 C192.5688,163.4688 192.6,163.5938 192.7406,163.7188 C192.8813,163.8594 193.1156,163.9688 193.3344,163.9688 C193.6,163.9688 193.8656,163.8281 194.0375,163.6094 C194.1469,163.4531 194.1781,163.2656 194.1781,162.8438 L194.1781,161.4219 C194.1781,160.9844 194.1625,160.8594 194.0688,160.7031 C193.9125,160.4375 193.6313,160.2969 193.3344,160.2969 C193.0375,160.2969 192.8344,160.3906 192.6156,160.7031 L192.4438,160.625 Z " fill="#000000"/><text fill="#000000" font-family="sans-serif" font-size="12" lengthAdjust="spacing" textLength="75" x="205.9" y="169.1074">TalkStrategy</text><line style="stroke:#A80036;stroke-width:1.5;" x1="168" x2="291" y1="180.9531" y2="180.9531"/><line style="stroke:#A80036;stroke-width:1.5;" x1="168" x2="291" y1="188.9531" y2="188.9531"/><text fill="#000000" font-family="sans-serif" font-size="11" lengthAdjust="spacing" textLength="113" x="173" y="203.1636">AlgorithmInterface()</text><!--MD5=[2e69174041fa7eb3bebc5f460ee56291]
class Human--><rect codeLine="8" fill="#FEFECE" filter="url(#fqkh03kz16te1)" height="48" id="Human" style="stroke:#A80036;stroke-width:1.5;" width="73" x="59" y="155.4531"/><ellipse cx="74" cy="171.4531" fill="#ADD1B2" rx="11" ry="11" style="stroke:#A80036;stroke-width:1.0;"/><path d="M76.3438,167.125 C75.4063,166.6875 74.8125,166.5469 73.9375,166.5469 C71.3125,166.5469 69.3125,168.625 69.3125,171.3438 L69.3125,172.4688 C69.3125,175.0469 71.4219,176.9375 74.3125,176.9375 C75.5313,176.9375 76.6875,176.6406 77.4375,176.0938 C78.0156,175.6875 78.3438,175.2344 78.3438,174.8438 C78.3438,174.3906 77.9531,174 77.4844,174 C77.2656,174 77.0625,174.0781 76.875,174.2656 C76.4219,174.75 76.4219,174.75 76.2344,174.8438 C75.8125,175.1094 75.125,175.2344 74.3594,175.2344 C72.3125,175.2344 71.0156,174.1406 71.0156,172.4375 L71.0156,171.3438 C71.0156,169.5625 72.2656,168.25 74,168.25 C74.5781,168.25 75.1875,168.4063 75.6563,168.6563 C76.1406,168.9375 76.3125,169.1563 76.4063,169.5625 C76.4688,169.9688 76.5,170.0938 76.6406,170.2188 C76.7813,170.3594 77.0156,170.4688 77.2344,170.4688 C77.5,170.4688 77.7656,170.3281 77.9375,170.1094 C78.0469,169.9531 78.0781,169.7656 78.0781,169.3438 L78.0781,167.9219 C78.0781,167.4844 78.0625,167.3594 77.9688,167.2031 C77.8125,166.9375 77.5313,166.7969 77.2344,166.7969 C76.9375,166.7969 76.7344,166.8906 76.5156,167.2031 L76.3438,167.125 Z " fill="#000000"/><text fill="#000000" font-family="sans-serif" font-size="12" lengthAdjust="spacing" textLength="41" x="88" y="175.6074">Human</text><line style="stroke:#A80036;stroke-width:1.5;" x1="60" x2="131" y1="187.4531" y2="187.4531"/><line style="stroke:#A80036;stroke-width:1.5;" x1="60" x2="131" y1="195.4531" y2="195.4531"/><!--MD5=[454ed48f055567edc734f170f61b4daf]
class Dog--><rect codeLine="12" fill="#FEFECE" filter="url(#fqkh03kz16te1)" height="48" id="Dog" style="stroke:#A80036;stroke-width:1.5;" width="57" x="327" y="155.4531"/><ellipse cx="342" cy="171.4531" fill="#ADD1B2" rx="11" ry="11" style="stroke:#A80036;stroke-width:1.0;"/><path d="M344.3438,167.125 C343.4063,166.6875 342.8125,166.5469 341.9375,166.5469 C339.3125,166.5469 337.3125,168.625 337.3125,171.3438 L337.3125,172.4688 C337.3125,175.0469 339.4219,176.9375 342.3125,176.9375 C343.5313,176.9375 344.6875,176.6406 345.4375,176.0938 C346.0156,175.6875 346.3438,175.2344 346.3438,174.8438 C346.3438,174.3906 345.9531,174 345.4844,174 C345.2656,174 345.0625,174.0781 344.875,174.2656 C344.4219,174.75 344.4219,174.75 344.2344,174.8438 C343.8125,175.1094 343.125,175.2344 342.3594,175.2344 C340.3125,175.2344 339.0156,174.1406 339.0156,172.4375 L339.0156,171.3438 C339.0156,169.5625 340.2656,168.25 342,168.25 C342.5781,168.25 343.1875,168.4063 343.6563,168.6563 C344.1406,168.9375 344.3125,169.1563 344.4063,169.5625 C344.4688,169.9688 344.5,170.0938 344.6406,170.2188 C344.7813,170.3594 345.0156,170.4688 345.2344,170.4688 C345.5,170.4688 345.7656,170.3281 345.9375,170.1094 C346.0469,169.9531 346.0781,169.7656 346.0781,169.3438 L346.0781,167.9219 C346.0781,167.4844 346.0625,167.3594 345.9688,167.2031 C345.8125,166.9375 345.5313,166.7969 345.2344,166.7969 C344.9375,166.7969 344.7344,166.8906 344.5156,167.2031 L344.3438,167.125 Z " fill="#000000"/><text fill="#000000" font-family="sans-serif" font-size="12" lengthAdjust="spacing" textLength="25" x="356" y="175.6074">Dog</text><line style="stroke:#A80036;stroke-width:1.5;" x1="328" x2="383" y1="187.4531" y2="187.4531"/><line style="stroke:#A80036;stroke-width:1.5;" x1="328" x2="383" y1="195.4531" y2="195.4531"/><!--MD5=[7e1f2a6c9f073325c50937da10bce51f]
class TalkStrategyA--><rect codeLine="16" fill="#FEFECE" filter="url(#fqkh03kz16te1)" height="60.8047" id="TalkStrategyA" style="stroke:#A80036;stroke-width:1.5;" width="125" x="7" y="27.9531"/><ellipse cx="26.5" cy="43.9531" fill="#ADD1B2" rx="11" ry="11" style="stroke:#A80036;stroke-width:1.0;"/><path d="M28.8438,39.625 C27.9063,39.1875 27.3125,39.0469 26.4375,39.0469 C23.8125,39.0469 21.8125,41.125 21.8125,43.8438 L21.8125,44.9688 C21.8125,47.5469 23.9219,49.4375 26.8125,49.4375 C28.0313,49.4375 29.1875,49.1406 29.9375,48.5938 C30.5156,48.1875 30.8438,47.7344 30.8438,47.3438 C30.8438,46.8906 30.4531,46.5 29.9844,46.5 C29.7656,46.5 29.5625,46.5781 29.375,46.7656 C28.9219,47.25 28.9219,47.25 28.7344,47.3438 C28.3125,47.6094 27.625,47.7344 26.8594,47.7344 C24.8125,47.7344 23.5156,46.6406 23.5156,44.9375 L23.5156,43.8438 C23.5156,42.0625 24.7656,40.75 26.5,40.75 C27.0781,40.75 27.6875,40.9063 28.1563,41.1563 C28.6406,41.4375 28.8125,41.6563 28.9063,42.0625 C28.9688,42.4688 29,42.5938 29.1406,42.7188 C29.2813,42.8594 29.5156,42.9688 29.7344,42.9688 C30,42.9688 30.2656,42.8281 30.4375,42.6094 C30.5469,42.4531 30.5781,42.2656 30.5781,41.8438 L30.5781,40.4219 C30.5781,39.9844 30.5625,39.8594 30.4688,39.7031 C30.3125,39.4375 30.0313,39.2969 29.7344,39.2969 C29.4375,39.2969 29.2344,39.3906 29.0156,39.7031 L28.8438,39.625 Z " fill="#000000"/><text fill="#000000" font-family="sans-serif" font-size="12" lengthAdjust="spacing" textLength="83" x="41.5" y="48.1074">TalkStrategyA</text><line style="stroke:#A80036;stroke-width:1.5;" x1="8" x2="131" y1="59.9531" y2="59.9531"/><line style="stroke:#A80036;stroke-width:1.5;" x1="8" x2="131" y1="67.9531" y2="67.9531"/><text fill="#000000" font-family="sans-serif" font-size="11" lengthAdjust="spacing" textLength="113" x="13" y="82.1636">AlgorithmInterface()</text><!--MD5=[a9cfaccab1de29b8c28f075235ce322f]
class TalkStrategyB--><rect codeLine="20" fill="#FEFECE" filter="url(#fqkh03kz16te1)" height="60.8047" id="TalkStrategyB" style="stroke:#A80036;stroke-width:1.5;" width="125" x="167" y="27.9531"/><ellipse cx="186.5" cy="43.9531" fill="#ADD1B2" rx="11" ry="11" style="stroke:#A80036;stroke-width:1.0;"/><path d="M188.8438,39.625 C187.9063,39.1875 187.3125,39.0469 186.4375,39.0469 C183.8125,39.0469 181.8125,41.125 181.8125,43.8438 L181.8125,44.9688 C181.8125,47.5469 183.9219,49.4375 186.8125,49.4375 C188.0313,49.4375 189.1875,49.1406 189.9375,48.5938 C190.5156,48.1875 190.8438,47.7344 190.8438,47.3438 C190.8438,46.8906 190.4531,46.5 189.9844,46.5 C189.7656,46.5 189.5625,46.5781 189.375,46.7656 C188.9219,47.25 188.9219,47.25 188.7344,47.3438 C188.3125,47.6094 187.625,47.7344 186.8594,47.7344 C184.8125,47.7344 183.5156,46.6406 183.5156,44.9375 L183.5156,43.8438 C183.5156,42.0625 184.7656,40.75 186.5,40.75 C187.0781,40.75 187.6875,40.9063 188.1563,41.1563 C188.6406,41.4375 188.8125,41.6563 188.9063,42.0625 C188.9688,42.4688 189,42.5938 189.1406,42.7188 C189.2813,42.8594 189.5156,42.9688 189.7344,42.9688 C190,42.9688 190.2656,42.8281 190.4375,42.6094 C190.5469,42.4531 190.5781,42.2656 190.5781,41.8438 L190.5781,40.4219 C190.5781,39.9844 190.5625,39.8594 190.4688,39.7031 C190.3125,39.4375 190.0313,39.2969 189.7344,39.2969 C189.4375,39.2969 189.2344,39.3906 189.0156,39.7031 L188.8438,39.625 Z " fill="#000000"/><text fill="#000000" font-family="sans-serif" font-size="12" lengthAdjust="spacing" textLength="83" x="201.5" y="48.1074">TalkStrategyB</text><line style="stroke:#A80036;stroke-width:1.5;" x1="168" x2="291" y1="59.9531" y2="59.9531"/><line style="stroke:#A80036;stroke-width:1.5;" x1="168" x2="291" y1="67.9531" y2="67.9531"/><text fill="#000000" font-family="sans-serif" font-size="11" lengthAdjust="spacing" textLength="113" x="173" y="82.1636">AlgorithmInterface()</text><!--MD5=[e6abc195cec697d528f5919ffe01d1d2]
class TalkStrategyC--><rect codeLine="24" fill="#FEFECE" filter="url(#fqkh03kz16te1)" height="60.8047" id="TalkStrategyC" style="stroke:#A80036;stroke-width:1.5;" width="125" x="327" y="27.9531"/><ellipse cx="346.5" cy="43.9531" fill="#ADD1B2" rx="11" ry="11" style="stroke:#A80036;stroke-width:1.0;"/><path d="M348.8438,39.625 C347.9063,39.1875 347.3125,39.0469 346.4375,39.0469 C343.8125,39.0469 341.8125,41.125 341.8125,43.8438 L341.8125,44.9688 C341.8125,47.5469 343.9219,49.4375 346.8125,49.4375 C348.0313,49.4375 349.1875,49.1406 349.9375,48.5938 C350.5156,48.1875 350.8438,47.7344 350.8438,47.3438 C350.8438,46.8906 350.4531,46.5 349.9844,46.5 C349.7656,46.5 349.5625,46.5781 349.375,46.7656 C348.9219,47.25 348.9219,47.25 348.7344,47.3438 C348.3125,47.6094 347.625,47.7344 346.8594,47.7344 C344.8125,47.7344 343.5156,46.6406 343.5156,44.9375 L343.5156,43.8438 C343.5156,42.0625 344.7656,40.75 346.5,40.75 C347.0781,40.75 347.6875,40.9063 348.1563,41.1563 C348.6406,41.4375 348.8125,41.6563 348.9063,42.0625 C348.9688,42.4688 349,42.5938 349.1406,42.7188 C349.2813,42.8594 349.5156,42.9688 349.7344,42.9688 C350,42.9688 350.2656,42.8281 350.4375,42.6094 C350.5469,42.4531 350.5781,42.2656 350.5781,41.8438 L350.5781,40.4219 C350.5781,39.9844 350.5625,39.8594 350.4688,39.7031 C350.3125,39.4375 350.0313,39.2969 349.7344,39.2969 C349.4375,39.2969 349.2344,39.3906 349.0156,39.7031 L348.8438,39.625 Z " fill="#000000"/><text fill="#000000" font-family="sans-serif" font-size="12" lengthAdjust="spacing" textLength="83" x="361.5" y="48.1074">TalkStrategyC</text><line style="stroke:#A80036;stroke-width:1.5;" x1="328" x2="451" y1="59.9531" y2="59.9531"/><line style="stroke:#A80036;stroke-width:1.5;" x1="328" x2="451" y1="67.9531" y2="67.9531"/><text fill="#000000" font-family="sans-serif" font-size="11" lengthAdjust="spacing" textLength="113" x="333" y="82.1636">AlgorithmInterface()</text><!--MD5=[c874fc377338979d53f0e3df51a83cd7]
link TalkStrategyA to TalkStrategy--><path codeLine="28" d="M109.462,89.1751 C132.649,106.4201 161.882,128.1624 185.694,145.8726 " fill="none" id="TalkStrategyA-to-TalkStrategy" style="stroke:#A80036;stroke-width:1.0;"/><polygon fill="#A80036" points="189.77,148.9042,184.936,140.3233,185.7582,145.9201,180.1614,146.7422,189.77,148.9042" style="stroke:#A80036;stroke-width:1.0;"/><!--MD5=[4148201759e2e81c303e8b295dff8168]
link TalkStrategyB to TalkStrategy--><path codeLine="29" d="M229.5,89.1751 C229.5,105.6451 229.5,126.2173 229.5,143.4613 " fill="none" id="TalkStrategyB-to-TalkStrategy" style="stroke:#A80036;stroke-width:1.0;"/><polygon fill="#A80036" points="229.5,148.6978,233.5,139.6978,229.5,143.6978,225.5,139.6978,229.5,148.6978" style="stroke:#A80036;stroke-width:1.0;"/><!--MD5=[fd66e7988db7f73b7e2cf195c9a6e31b]
link TalkStrategyC to TalkStrategy--><path codeLine="30" d="M349.538,89.1751 C326.351,106.4201 297.118,128.1624 273.306,145.8726 " fill="none" id="TalkStrategyC-to-TalkStrategy" style="stroke:#A80036;stroke-width:1.0;"/><polygon fill="#A80036" points="269.23,148.9042,278.8386,146.7422,273.2418,145.9201,274.064,140.3233,269.23,148.9042" style="stroke:#A80036;stroke-width:1.0;"/><!--MD5=[933ebcfe5f9fd2519f4e8808f9b96bf2]
link Human to TalkStrategy--><!--MD5=[933ebcfe5f9fd2519f4e8808f9b96bf2]
link Human to TalkStrategy--><path codeLine="34" d="M143.927,162.8927 C143.927,162.8927 150.752,161.9748 153.568,161.773 " fill="none" id="Human-TalkStrategy-1" style="stroke:#A80036;stroke-width:1.0;"/><polygon fill="#A80036" points="166.749,161.5255,157.6754,157.6954,161.7499,161.6195,157.8258,165.6939,166.749,161.5255" style="stroke:#A80036;stroke-width:1.0;"/><line style="stroke:#A80036;stroke-width:1.0;" x1="161.7499" x2="153.7515" y1="161.6195" y2="161.7697"/><polygon fill="#FFFFFF" points="132.141,165.1489,138.7861,167.9495,143.927,162.8927,137.2819,160.0921,132.141,165.1489" style="stroke:#A80036;stroke-width:1.0;"/><!--MD5=[66d6bd32b22684475f50c276789aeb11]
link TalkStrategy to Dog--><!--MD5=[bd16d00df5115da93a4c4385880301b4]
link Dog to TalkStrategy--><path codeLine="35" d="M315.3083,159.6507 C315.3083,159.6507 308.08,157.9235 305.029,157.4828 " fill="none" id="Dog-TalkStrategy" style="stroke:#A80036;stroke-width:1.0;"/><polygon fill="#A80036" points="292.008,156.5795,300.7095,161.193,296.996,156.9257,301.2633,153.2122,292.008,156.5795" style="stroke:#A80036;stroke-width:1.0;"/><line style="stroke:#A80036;stroke-width:1.0;" x1="296.996" x2="304.977" y1="156.9257" y2="157.4793"/><polygon fill="#FFFFFF" points="326.73,163.3311,322.246,157.6837,315.3083,159.6507,319.7924,165.2981,326.73,163.3311" style="stroke:#A80036;stroke-width:1.0;"/><!--MD5=[9fe433137bb52fa5f3599630c70e5234]
@startuml
title StrategyExample


class TalkStrategy{
    AlgorithmInterface()
}

class Human{
    
}

class Dog{
    
}

class TalkStrategyA{
    AlgorithmInterface()
}

class TalkStrategyB{
    AlgorithmInterface()
}

class TalkStrategyC{
    AlgorithmInterface()
}

TalkStrategyA - -> TalkStrategy
TalkStrategyB - -> TalkStrategy
TalkStrategyC - -> TalkStrategy

Human -[hidden] TalkStrategy
TalkStrategy -[hidden] Dog
Human o- -> TalkStrategy
Dog o- -> TalkStrategy
@enduml

PlantUML version 1.2021.10beta1(Unknown compile time)
(GPL source distribution)
Java Runtime: Java(TM) SE Runtime Environment
JVM: Java HotSpot(TM) 64-Bit Server VM
Default Encoding: UTF-8
Language: en
Country: US
--></g></svg>